SplineFontDB: 3.0
FontName: FifteenTwenty-Bold
FullName: FifteenTwenty Bold
FamilyName: FifteenTwenty
Weight: Bold
Copyright: FifteenTwenty Bold\nMade in 2016 by Stewart C. Russell - scruss.com\nLicence: Dual-licensed CC0/WTFPL (srsly)\n
UComments: "Derived from character stroke coordinates from the Commodore 1520 plotter ROM. This has been documented here - http://e4aws.silverdr.com/hacks/6500_1/ - and here - https://github.com/Project-64/reloaded/tree/master/1520/rom+AAoACgAA-This font contains none of the original Commodore coordinates, as they were in a format unusable with current computer systems.+AAoACgAA-Coverage: ASCII."
Version: 001.000
ItalicAngle: 0
UnderlinePosition: -100
UnderlineWidth: 50
Ascent: 800
Descent: 200
InvalidEm: 0
LayerCount: 2
Layer: 0 0 "Back" 1
Layer: 1 0 "Fore" 0
XUID: [1021 97 -2058878127 470374]
FSType: 0
OS2Version: 0
OS2_WeightWidthSlopeOnly: 0
OS2_UseTypoMetrics: 1
CreationTime: 1462799702
ModificationTime: 1462800225
PfmFamily: 17
TTFWeight: 700
TTFWidth: 5
LineGap: 90
VLineGap: 0
OS2TypoAscent: 0
OS2TypoAOffset: 1
OS2TypoDescent: 0
OS2TypoDOffset: 1
OS2TypoLinegap: 90
OS2WinAscent: 0
OS2WinAOffset: 1
OS2WinDescent: 0
OS2WinDOffset: 1
HheadAscent: 0
HheadAOffset: 1
HheadDescent: 0
HheadDOffset: 1
OS2Vendor: 'PfEd'
MarkAttachClasses: 1
DEI: 91125
Encoding: UnicodeFull
Compacted: 1
UnicodeInterp: none
NameList: AGL For New Fonts
DisplaySize: -48
AntiAlias: 1
FitToEm: 1
WinInfo: 0 17 10
BeginPrivate: 0
EndPrivate
BeginChars: 1114112 103

StartChar: exclam
Encoding: 33 33 0
Width: 576
VWidth: 228
Flags: W
HStem: 200 21G<236.5 243> 837 20G<228.5 348.5>
VStem: 193 191<209.406 382.528 395.485 848.615>
LayerCount: 2
Back
Fore
SplineSet
242 857 m 1
 335 857 l 2
 362 857 384 835 384 808 c 2
 384 436 l 2
 384 416 369 395 350 389 c 1
 369 383 384 363 384 343 c 2
 384 250 l 2
 384 223 362 201 335 201 c 2
 250 201 l 2
 248 201 244 200 242 200 c 0
 231 200 215 206 207 214 c 0
 206 215 l 0
 198 223 192 239 192 250 c 0
 192 252 193 256 193 258 c 2
 193 343 l 2
 193 362 207 383 225 389 c 1
 219 391 211 396 207 400 c 0
 206 401 l 0
 198 409 192 425 192 436 c 0
 192 438 193 442 193 444 c 2
 193 808 l 2
 193 835 215 857 242 857 c 1
EndSplineSet
EndChar

StartChar: quotedbl
Encoding: 34 34 1
Width: 576
VWidth: 228
Flags: W
HStem: 665 193<154.719 235.615 340.719 421.615>
VStem: 146 98<673.385 849.615> 332 98<673.385 849.615>
LayerCount: 2
Back
Fore
SplineSet
194 858 m 0
 195 858 l 0
 222 858 244 836 244 809 c 0
 244 808 l 2
 244 715 l 2
 244 714 l 0
 244 687 222 665 195 665 c 0
 168 665 146 687 146 714 c 0
 146 715 l 2
 146 808 l 2
 146 809 l 0
 146 836 167 858 194 858 c 0
380 858 m 0
 381 858 l 0
 408 858 430 836 430 809 c 0
 430 808 l 2
 430 715 l 2
 430 714 l 0
 430 687 408 665 381 665 c 0
 354 665 332 687 332 714 c 0
 332 715 l 2
 332 808 l 2
 332 809 l 0
 332 836 353 858 380 858 c 0
EndSplineSet
EndChar

StartChar: numbersign
Encoding: 35 35 2
Width: 576
VWidth: 228
Flags: W
HStem: 387 98<60.7012 146 244 332 430 515.299> 573 98<60.7012 146 244 332 430 515.299>
VStem: 146 98<302.058 387 485 573 671 757.265> 332 98<302.058 387 485 573 671 755.942>
LayerCount: 2
Back
Fore
SplineSet
194 765 m 0
 196 765 l 0
 223 765 244 743 244 716 c 0
 244 715 l 2
 244 671 l 1
 332 671 l 1
 332 715 l 2
 332 716 l 0
 332 743 355 765 382 765 c 0
 409 765 430 743 430 716 c 0
 430 715 l 2
 430 671 l 1
 474 671 l 2
 501 671 524 649 524 622 c 0
 524 595 501 573 474 573 c 0
 430 573 l 1
 430 485 l 1
 474 485 l 2
 501 485 524 463 524 436 c 0
 524 409 501 387 474 387 c 0
 430 387 l 1
 430 343 l 2
 430 342 l 0
 430 315 409 293 382 293 c 0
 355 293 332 315 332 342 c 0
 332 343 l 2
 332 387 l 1
 244 387 l 1
 244 343 l 2
 244 342 l 0
 244 315 223 293 196 293 c 0
 169 293 146 315 146 342 c 0
 146 343 l 2
 146 387 l 1
 102 387 l 2
 75 387 52 409 52 436 c 0
 52 463 75 485 102 485 c 0
 146 485 l 1
 146 573 l 1
 102 573 l 2
 75 573 52 595 52 622 c 0
 52 649 75 671 102 671 c 0
 146 671 l 1
 146 715 l 2
 146 716 l 0
 146 743 167 765 194 765 c 0
244 573 m 1
 244 485 l 1
 332 485 l 1
 332 573 l 1
 244 573 l 1
EndSplineSet
EndChar

StartChar: dollar
Encoding: 36 36 3
Width: 576
VWidth: 228
Flags: W
HStem: 200 21G<274.5 301.5> 294 98<153.385 239 337 361> 480 98<215 239 337 361> 666 98<215 239 337 422.615> 838 20G<273.5 301.5>
VStem: 239 98<208.385 294 392 480 578 666 764 849.615>
LayerCount: 2
Back
Fore
SplineSet
287 858 m 0
 288 858 l 0
 315 858 337 836 337 809 c 0
 337 808 l 2
 337 764 l 1
 381 764 l 2
 382 764 l 0
 409 764 431 742 431 715 c 0
 431 688 409 666 382 666 c 0
 381 666 l 2
 337 666 l 1
 337 578 l 1
 381 578 l 2
 392 578 408 571 416 563 c 2
 509 470 l 2
 517 462 523 447 523 436 c 0
 523 425 517 409 509 401 c 2
 416 308 l 2
 408 300 392 294 381 294 c 2
 337 294 l 1
 337 250 l 2
 337 249 l 0
 337 222 315 200 288 200 c 0
 261 200 239 222 239 249 c 0
 239 250 l 2
 239 294 l 1
 195 294 l 2
 194 294 l 0
 167 294 145 316 145 343 c 0
 145 370 167 392 194 392 c 0
 195 392 l 2
 239 392 l 1
 239 480 l 1
 195 480 l 2
 184 480 168 486 160 494 c 2
 67 587 l 2
 59 595 53 611 53 622 c 0
 53 633 59 648 67 656 c 2
 160 749 l 2
 168 757 184 764 195 764 c 2
 239 764 l 1
 239 808 l 2
 239 809 l 0
 239 836 260 858 287 858 c 0
215 666 m 1
 171 622 l 1
 215 578 l 1
 239 578 l 1
 239 666 l 1
 215 666 l 1
337 480 m 1
 337 392 l 1
 361 392 l 1
 405 436 l 1
 361 480 l 1
 337 480 l 1
EndSplineSet
EndChar

StartChar: percent
Encoding: 37 37 4
Width: 576
VWidth: 228
Flags: W
HStem: 294 191<346.38 515.299> 573 191<60.7012 229.618>
VStem: 52 192<582.058 748.62> 52 178<582.058 754.942> 332 192<303.058 469.62> 346 178<303.058 475.942>
LayerCount: 2
Back
Fore
SplineSet
194 765 m 0xe0
 205 765 222 759 230 751 c 0
 230 750 l 0
 230 749 l 0xd0
 238 741 244 726 244 715 c 0
 244 713 244 709 244 707 c 2
 244 622 l 2
 244 595 223 573 196 573 c 2
 102 573 l 2
 75 573 52 595 52 622 c 2
 52 715 l 2
 52 742 75 764 102 764 c 2
 188 764 l 2
 190 764 192 765 194 765 c 0xe0
474 764 m 0
 501 764 524 742 524 715 c 0xd4
 524 704 516 688 508 680 c 2
 136 308 l 2
 128 300 113 293 102 293 c 0
 75 293 52 315 52 342 c 0
 52 353 60 369 68 377 c 2
 440 749 l 2
 448 757 463 764 474 764 c 0
380 485 m 0
 382 485 388 485 390 485 c 2
 474 485 l 2
 501 485 524 463 524 436 c 2
 524 343 l 2
 524 316 501 294 474 294 c 2
 382 294 l 2
 355 294 332 316 332 343 c 2
 332 428 l 2
 332 430 332 434 332 436 c 0xc8
 332 447 338 462 346 470 c 0
 346 471 l 0
 354 479 369 485 380 485 c 0
EndSplineSet
EndChar

StartChar: ampersand
Encoding: 38 38 5
Width: 576
VWidth: 228
Flags: W
HStem: 201 98<214 268> 837 20G<188.5 199.5>
VStem: 52 98<363 415 642 695> 238 98<642 695>
LayerCount: 2
Back
Fore
SplineSet
194 857 m 0
 205 857 222 850 230 842 c 2
 322 749 l 2
 330 741 336 726 336 715 c 2
 336 622 l 2
 336 611 330 595 322 587 c 2
 264 529 l 1
 380 412 l 1
 438 470 l 2
 446 478 463 485 474 485 c 0
 501 485 524 463 524 436 c 0
 524 425 516 409 508 401 c 2
 450 343 l 1
 508 284 l 2
 516 276 524 260 524 249 c 0
 524 222 501 200 474 200 c 0
 463 200 446 207 438 215 c 2
 380 273 l 1
 322 215 l 2
 314 207 299 201 288 201 c 2
 194 201 l 2
 183 201 168 207 160 215 c 2
 66 308 l 2
 58 316 52 332 52 343 c 2
 52 436 l 2
 52 447 58 462 66 470 c 2
 126 529 l 1
 66 587 l 2
 58 595 52 611 52 622 c 2
 52 715 l 2
 52 726 58 741 66 749 c 2
 160 842 l 2
 168 850 183 857 194 857 c 0
194 739 m 1
 150 695 l 1
 150 642 l 1
 194 598 l 1
 238 642 l 1
 238 695 l 1
 194 739 l 1
194 459 m 1
 150 415 l 1
 150 363 l 1
 214 299 l 1
 268 299 l 1
 312 343 l 1
 194 459 l 1
EndSplineSet
EndChar

StartChar: quotesingle
Encoding: 39 39 6
Width: 576
VWidth: 228
Flags: W
HStem: 572 286<247.719 328.615>
VStem: 239 98<580.385 849.615>
LayerCount: 2
Back
Fore
SplineSet
287 858 m 0
 288 858 l 0
 315 858 337 836 337 809 c 0
 337 808 l 2
 337 622 l 2
 337 621 l 0
 337 594 315 572 288 572 c 0
 261 572 239 594 239 621 c 0
 239 622 l 2
 239 808 l 2
 239 809 l 0
 239 836 260 858 287 858 c 0
EndSplineSet
EndChar

StartChar: parenleft
Encoding: 40 40 7
Width: 576
VWidth: 228
Flags: W
HStem: 201 98<308 421.932> 759 98<308 421.932>
VStem: 146 98<363 695>
LayerCount: 2
Back
Fore
SplineSet
288 857 m 0
 380 857 l 2
 382 857 l 0
 409 857 430 835 430 808 c 0
 430 781 409 759 382 759 c 0
 380 759 l 2
 308 759 l 1
 244 695 l 1
 244 363 l 1
 308 299 l 1
 380 299 l 2
 382 299 l 0
 409 299 430 277 430 250 c 0
 430 223 409 201 382 201 c 0
 380 201 l 2
 288 201 l 2
 277 201 260 207 252 215 c 2
 160 308 l 2
 152 316 146 332 146 343 c 2
 146 715 l 2
 146 726 152 741 160 749 c 2
 252 842 l 2
 260 850 277 857 288 857 c 0
EndSplineSet
EndChar

StartChar: parenright
Encoding: 41 41 8
Width: 576
VWidth: 228
Flags: W
HStem: 201 98<154.068 268> 759 98<154.068 268>
VStem: 332 98<363 695>
LayerCount: 2
Back
Fore
SplineSet
196 857 m 1
 288 857 l 2
 299 857 314 850 322 842 c 2
 416 749 l 2
 424 741 430 726 430 715 c 2
 430 343 l 2
 430 332 424 316 416 308 c 2
 322 215 l 2
 314 207 299 201 288 201 c 2
 196 201 l 2
 194 201 l 0
 167 201 146 223 146 250 c 0
 146 277 167 299 194 299 c 0
 196 299 l 2
 268 299 l 1
 332 363 l 1
 332 695 l 1
 268 759 l 1
 196 759 l 2
 194 759 l 0
 167 759 146 781 146 808 c 0
 146 835 167 857 194 857 c 0
 196 857 l 1
EndSplineSet
EndChar

StartChar: asterisk
Encoding: 42 42 9
Width: 576
VWidth: 228
Flags: W
VStem: 240 98<302.058 410 647 755.942>
LayerCount: 2
Back
Fore
SplineSet
288 765 m 0
 315 765 338 743 338 716 c 0
 338 715 l 2
 338 647 l 1
 440 749 l 2
 448 757 463 764 474 764 c 0
 501 764 524 742 524 715 c 0
 524 704 516 688 508 680 c 2
 358 529 l 1
 508 377 l 2
 516 369 524 353 524 342 c 0
 524 315 501 293 474 293 c 0
 463 293 448 300 440 308 c 2
 338 410 l 1
 338 343 l 2
 338 342 l 0
 338 315 315 293 288 293 c 0
 261 293 240 315 240 342 c 0
 240 343 l 2
 240 410 l 1
 136 308 l 2
 128 300 113 293 102 293 c 0
 75 293 52 315 52 342 c 0
 52 353 60 369 68 377 c 2
 218 529 l 1
 68 680 l 2
 60 688 52 704 52 715 c 0
 52 742 75 764 102 764 c 0
 113 764 128 757 136 749 c 2
 240 647 l 1
 240 715 l 2
 240 716 l 0
 240 743 261 765 288 765 c 0
EndSplineSet
EndChar

StartChar: plus
Encoding: 43 43 10
Width: 576
VWidth: 228
Flags: W
HStem: 480 98<60.7012 240 338 515.299>
VStem: 240 98<302.058 480 578 755.942>
LayerCount: 2
Back
Fore
SplineSet
288 765 m 0
 315 765 338 743 338 716 c 0
 338 715 l 2
 338 578 l 1
 474 578 l 2
 501 578 524 556 524 529 c 0
 524 502 501 480 474 480 c 0
 338 480 l 1
 338 343 l 2
 338 342 l 0
 338 315 315 293 288 293 c 0
 261 293 240 315 240 342 c 0
 240 343 l 2
 240 480 l 1
 102 480 l 2
 75 480 52 502 52 529 c 0
 52 556 75 578 102 578 c 0
 240 578 l 1
 240 715 l 2
 240 716 l 0
 240 743 261 765 288 765 c 0
EndSplineSet
EndChar

StartChar: comma
Encoding: 44 44 11
Width: 576
VWidth: 228
Flags: W
HStem: 107 285<221.953 282.953>
VStem: 192 192<209.609 383.615>
LayerCount: 2
Back
Fore
SplineSet
241 392 m 2
 335 392 l 2
 362 392 384 370 384 343 c 2
 384 258 l 2
 384 256 384 252 384 250 c 0
 384 237 376 219 365 211 c 2
 276 122 l 2
 268 114 252 107 241 107 c 0
 214 107 192 129 192 156 c 0
 192 167 199 183 207 191 c 2
 221 205 l 1
 205 212 192 233 192 250 c 2
 192 343 l 2
 192 370 214 392 241 392 c 2
EndSplineSet
EndChar

StartChar: hyphen
Encoding: 45 45 12
Width: 576
VWidth: 228
Flags: W
HStem: 480 98<60.7012 515.299>
LayerCount: 2
Back
Fore
SplineSet
102 578 m 0
 474 578 l 2
 501 578 524 556 524 529 c 0
 524 502 501 480 474 480 c 0
 102 480 l 2
 75 480 52 502 52 529 c 0
 52 556 75 578 102 578 c 0
EndSplineSet
EndChar

StartChar: period
Encoding: 46 46 13
Width: 576
VWidth: 228
Flags: W
HStem: 201 191<201.406 375.615>
VStem: 193 191<209.406 383.615>
LayerCount: 2
Back
Fore
SplineSet
242 392 m 1
 335 392 l 2
 362 392 384 370 384 343 c 2
 384 250 l 2
 384 223 362 201 335 201 c 2
 250 201 l 2
 248 201 244 200 242 200 c 0
 231 200 215 206 207 214 c 0
 206 215 l 0
 198 223 192 239 192 250 c 0
 192 252 193 256 193 258 c 2
 193 343 l 2
 193 370 215 392 242 392 c 1
EndSplineSet
EndChar

StartChar: slash
Encoding: 47 47 14
Width: 576
VWidth: 228
Flags: W
HStem: 200 21G<41.5 60.5>
LayerCount: 2
Back
Fore
SplineSet
520 764 m 0
 521 764 l 0
 548 764 570 742 570 715 c 0
 570 704 563 688 555 680 c 2
 90 215 l 2
 82 207 66 200 55 200 c 0
 28 200 6 222 6 249 c 0
 6 260 13 276 21 284 c 2
 486 749 l 2
 494 757 509 764 520 764 c 0
EndSplineSet
EndChar

StartChar: zero
Encoding: 48 48 15
Width: 576
VWidth: 228
Flags: W
HStem: 201 98<216 360> 759 98<216 360>
VStem: 52 98<461 695> 426 98<363 597>
LayerCount: 2
Back
Fore
SplineSet
194 857 m 0
 382 857 l 2
 393 857 408 850 416 842 c 2
 504 754 l 2
 514 746 522 729 522 716 c 0
 524 715 l 0
 524 343 l 2
 524 332 516 316 508 308 c 2
 416 215 l 2
 408 207 393 201 382 201 c 2
 194 201 l 2
 183 201 168 207 160 215 c 2
 72 303 l 2
 61 311 52 328 52 342 c 0
 52 344 52 347 52 349 c 2
 52 715 l 2
 52 726 60 741 68 749 c 2
 160 842 l 2
 168 850 183 857 194 857 c 0
216 759 m 1
 150 695 l 1
 150 461 l 1
 404 715 l 1
 360 759 l 1
 216 759 l 1
426 597 m 1
 172 343 l 1
 216 299 l 1
 360 299 l 1
 426 363 l 1
 426 597 l 1
EndSplineSet
EndChar

StartChar: one
Encoding: 49 49 16
Width: 576
VWidth: 228
Flags: W
HStem: 201 98<154.068 240 338 421.932> 837 20G<280.5 301.5>
VStem: 146 284<208.735 291.265> 240 98<299 690>
LayerCount: 2
Back
Fore
SplineSet
286 857 m 0xe0
 288 857 l 0
 315 857 338 835 338 808 c 2
 338 299 l 1xd0
 382 299 l 2
 409 299 430 277 430 250 c 0
 430 223 409 201 382 201 c 0
 296 201 l 2
 294 201 290 200 288 200 c 0
 286 200 282 201 280 201 c 2
 196 201 l 2
 194 201 l 0
 167 201 146 223 146 250 c 0xe0
 146 277 167 299 194 299 c 0
 196 299 l 2
 240 299 l 1
 240 690 l 1xd0
 230 680 l 2
 222 672 205 665 194 665 c 0
 167 665 146 687 146 714 c 0
 146 725 152 741 160 749 c 2
 254 842 l 2
 262 850 275 857 286 857 c 0xe0
EndSplineSet
EndChar

StartChar: two
Encoding: 50 50 17
Width: 576
VWidth: 228
Flags: W
HStem: 201 98<220 515.299> 759 98<216 360>
VStem: 426 98<642 695>
LayerCount: 2
Back
Fore
SplineSet
196 857 m 0
 382 857 l 2
 393 857 408 850 416 842 c 2
 508 749 l 2
 516 741 524 726 524 715 c 2
 524 622 l 2
 524 611 516 595 508 587 c 2
 220 299 l 1
 474 299 l 2
 501 299 524 277 524 250 c 0
 524 223 501 201 474 201 c 0
 102 201 l 2
 75 201 52 223 52 250 c 0
 52 261 60 276 68 284 c 2
 426 642 l 1
 426 695 l 1
 360 759 l 1
 216 759 l 1
 136 680 l 2
 128 672 113 665 102 665 c 0
 75 665 52 687 52 714 c 0
 52 725 60 741 68 749 c 2
 160 842 l 2
 168 850 185 857 196 857 c 0
EndSplineSet
EndChar

StartChar: three
Encoding: 51 51 18
Width: 576
VWidth: 228
Flags: W
HStem: 201 98<216 360> 480 98<246.701 360> 759 98<216 360>
VStem: 426 98<363 415 642 695>
CounterMasks: 1 e0
LayerCount: 2
Back
Fore
SplineSet
196 857 m 0
 382 857 l 2
 393 857 408 850 416 842 c 2
 508 749 l 2
 516 741 524 726 524 715 c 2
 524 622 l 2
 524 611 516 595 508 587 c 2
 450 529 l 1
 508 470 l 2
 516 462 524 447 524 436 c 2
 524 343 l 2
 524 332 516 316 508 308 c 2
 416 215 l 2
 408 207 393 201 382 201 c 2
 196 201 l 2
 185 201 168 207 160 215 c 2
 68 308 l 2
 60 316 52 332 52 343 c 0
 52 370 75 392 102 392 c 0
 113 392 128 385 136 377 c 2
 216 299 l 1
 360 299 l 1
 426 363 l 1
 426 415 l 1
 360 480 l 1
 288 480 l 2
 261 480 238 502 238 529 c 0
 238 556 261 578 288 578 c 0
 360 578 l 1
 426 642 l 1
 426 695 l 1
 360 759 l 1
 216 759 l 1
 136 680 l 2
 128 672 113 665 102 665 c 0
 75 665 52 687 52 714 c 0
 52 725 60 741 68 749 c 2
 160 842 l 2
 168 850 185 857 196 857 c 0
EndSplineSet
EndChar

StartChar: four
Encoding: 52 52 19
Width: 576
VWidth: 228
Flags: W
HStem: 200 21G<366.5 393.5> 387 98<150 332 430 515.299> 837 20G<374.5 393.5>
VStem: 332 98<209.058 387 485 690>
LayerCount: 2
Back
Fore
SplineSet
380 857 m 0
 407 857 430 835 430 808 c 2
 430 485 l 1
 474 485 l 2
 501 485 524 463 524 436 c 0
 524 409 501 387 474 387 c 0
 430 387 l 1
 430 250 l 2
 430 249 l 0
 430 222 407 200 380 200 c 0
 353 200 332 222 332 249 c 0
 332 250 l 2
 332 387 l 1
 102 387 l 2
 75 387 52 409 52 436 c 2
 52 529 l 2
 52 540 58 555 66 563 c 2
 346 842 l 2
 354 850 369 857 380 857 c 0
332 690 m 1
 150 508 l 1
 150 485 l 1
 332 485 l 1
 332 690 l 1
EndSplineSet
EndChar

StartChar: five
Encoding: 53 53 20
Width: 576
VWidth: 228
Flags: W
HStem: 201 98<216 360> 573 98<150 360> 759 98<150 515.299>
VStem: 52 98<671 759> 426 98<363 508>
LayerCount: 2
Back
Fore
SplineSet
102 857 m 1
 474 857 l 2
 501 857 524 835 524 808 c 0
 524 781 501 759 474 759 c 0
 150 759 l 1
 150 671 l 1
 382 671 l 2
 393 671 408 664 416 656 c 2
 508 563 l 2
 516 555 524 540 524 529 c 2
 524 343 l 2
 524 332 516 316 508 308 c 2
 416 215 l 2
 408 207 393 201 382 201 c 2
 196 201 l 2
 185 201 168 207 160 215 c 2
 68 308 l 2
 60 316 52 332 52 343 c 0
 52 370 75 392 102 392 c 0
 113 392 128 385 136 377 c 2
 216 299 l 1
 360 299 l 1
 426 363 l 1
 426 508 l 1
 360 573 l 1
 102 573 l 2
 75 573 52 595 52 622 c 2
 52 808 l 2
 52 835 75 857 102 857 c 1
EndSplineSet
EndChar

StartChar: six
Encoding: 54 54 21
Width: 576
VWidth: 228
Flags: W
HStem: 201 98<216 360> 573 98<216 360> 759 98<216 360>
VStem: 52 98<363 508 647 695> 426 98<363 508>
LayerCount: 2
Back
Fore
SplineSet
194 857 m 0
 382 857 l 2
 393 857 408 850 416 842 c 2
 508 749 l 2
 516 741 524 725 524 714 c 0
 524 687 501 665 474 665 c 0
 463 665 448 672 440 680 c 2
 360 759 l 1
 216 759 l 1
 150 695 l 1
 150 647 l 1
 160 656 l 2
 168 664 183 671 194 671 c 2
 382 671 l 2
 393 671 408 664 416 656 c 2
 508 563 l 2
 516 555 524 540 524 529 c 2
 524 343 l 2
 524 332 516 316 508 308 c 2
 416 215 l 2
 408 207 393 201 382 201 c 2
 194 201 l 2
 183 201 168 207 160 215 c 2
 68 308 l 2
 60 316 52 332 52 343 c 2
 52 522 l 2
 52 524 52 526 52 528 c 0
 52 530 52 533 52 535 c 2
 52 715 l 2
 52 726 60 741 68 749 c 2
 160 842 l 2
 168 850 183 857 194 857 c 0
216 573 m 1
 150 508 l 1
 150 363 l 1
 216 299 l 1
 360 299 l 1
 426 363 l 1
 426 508 l 1
 360 573 l 1
 216 573 l 1
EndSplineSet
EndChar

StartChar: seven
Encoding: 55 55 22
Width: 576
VWidth: 228
Flags: W
HStem: 200 21G<88.5 107.5> 759 98<60.7012 426>
VStem: 426 98<642 759>
LayerCount: 2
Back
Fore
SplineSet
102 857 m 0
 474 857 l 2
 501 857 524 835 524 808 c 2
 524 622 l 2
 524 611 516 595 508 587 c 2
 136 215 l 2
 128 207 113 200 102 200 c 0
 75 200 52 222 52 249 c 0
 52 260 60 276 68 284 c 2
 426 642 l 1
 426 759 l 1
 102 759 l 2
 75 759 52 781 52 808 c 0
 52 835 75 857 102 857 c 0
EndSplineSet
EndChar

StartChar: eight
Encoding: 56 56 23
Width: 576
VWidth: 228
Flags: W
HStem: 201 98<215 361> 480 98<215 361> 759 98<215 361>
VStem: 53 98<363 415 642 695> 425 98<363 415 642 695>
CounterMasks: 1 e0
LayerCount: 2
Back
Fore
SplineSet
195 857 m 0
 381 857 l 2
 392 857 408 850 416 842 c 2
 509 749 l 2
 517 741 523 726 523 715 c 2
 523 622 l 2
 523 611 517 595 509 587 c 2
 450 529 l 1
 509 470 l 2
 517 462 523 447 523 436 c 2
 523 343 l 2
 523 332 517 316 509 308 c 2
 416 215 l 2
 408 207 392 201 381 201 c 2
 195 201 l 2
 184 201 168 207 160 215 c 2
 67 308 l 2
 59 316 53 332 53 343 c 2
 53 436 l 2
 53 447 59 462 67 470 c 2
 126 529 l 1
 67 587 l 2
 59 595 53 611 53 622 c 2
 53 715 l 2
 53 726 59 741 67 749 c 2
 160 842 l 2
 168 850 184 857 195 857 c 0
215 759 m 1
 151 695 l 1
 151 642 l 1
 215 578 l 1
 361 578 l 1
 425 642 l 1
 425 695 l 1
 361 759 l 1
 215 759 l 1
215 480 m 1
 151 415 l 1
 151 363 l 1
 215 299 l 1
 361 299 l 1
 425 363 l 1
 425 415 l 1
 361 480 l 1
 215 480 l 1
EndSplineSet
EndChar

StartChar: nine
Encoding: 57 57 24
Width: 576
VWidth: 228
Flags: W
HStem: 201 98<216 360> 480 98<216 360> 759 98<216 360>
VStem: 52 98<642 695> 426 98<363 503 642 695>
CounterMasks: 1 e0
LayerCount: 2
Back
Fore
SplineSet
196 857 m 0
 382 857 l 2
 393 857 408 850 416 842 c 2
 508 749 l 2
 516 741 524 726 524 715 c 2
 524 629 l 2
 524 627 524 624 524 622 c 0
 524 620 524 618 524 616 c 2
 524 343 l 2
 524 332 516 316 508 308 c 2
 416 215 l 2
 408 207 393 201 382 201 c 2
 196 201 l 2
 185 201 168 207 160 215 c 2
 68 308 l 2
 60 316 52 332 52 343 c 0
 52 370 75 392 102 392 c 0
 113 392 128 385 136 377 c 2
 216 299 l 1
 360 299 l 1
 426 363 l 1
 426 503 l 1
 416 494 l 2
 408 486 393 480 382 480 c 2
 196 480 l 2
 185 480 168 486 160 494 c 2
 68 587 l 2
 60 595 52 611 52 622 c 2
 52 715 l 2
 52 726 60 741 68 749 c 2
 160 842 l 2
 168 850 185 857 196 857 c 0
216 759 m 1
 150 695 l 1
 150 642 l 1
 216 578 l 1
 360 578 l 1
 426 642 l 1
 426 695 l 1
 360 759 l 1
 216 759 l 1
EndSplineSet
EndChar

StartChar: colon
Encoding: 58 58 25
Width: 576
VWidth: 228
Flags: W
HStem: 294 191<201.406 375.615> 573 191<201.406 375.615>
VStem: 193 191<302.406 476.615 581.406 755.615>
LayerCount: 2
Back
Fore
SplineSet
242 764 m 0
 335 764 l 2
 362 764 384 742 384 715 c 2
 384 622 l 2
 384 595 362 573 335 573 c 2
 250 573 l 2
 248 573 244 572 242 572 c 0
 231 572 215 578 207 586 c 0
 206 587 l 0
 198 595 192 611 192 622 c 0
 192 624 193 628 193 630 c 2
 193 715 l 2
 193 742 215 764 242 764 c 0
242 485 m 1
 335 485 l 2
 362 485 384 463 384 436 c 2
 384 343 l 2
 384 316 362 294 335 294 c 2
 250 294 l 2
 248 294 244 293 242 293 c 0
 231 293 215 299 207 307 c 0
 206 308 l 0
 198 316 192 332 192 343 c 0
 192 345 193 349 193 351 c 2
 193 436 l 2
 193 463 215 485 242 485 c 1
EndSplineSet
EndChar

StartChar: semicolon
Encoding: 59 59 26
Width: 576
VWidth: 228
Flags: W
HStem: 200 21G<227.5 246.5> 573 191<201.385 369.984>
VStem: 193 191<302.609 476.615 588.38 755.615> 193 177<587 755.615>
LayerCount: 2
Back
Fore
SplineSet
242 764 m 0xe0
 335 764 l 2
 362 764 384 742 384 715 c 2
 384 630 l 2
 384 628 384 624 384 622 c 0xe0
 384 611 378 596 370 588 c 0
 370 587 l 0xd0
 369 586 l 0
 361 578 346 572 335 572 c 0
 333 572 329 573 327 573 c 2
 242 573 l 2
 215 573 193 595 193 622 c 2
 193 715 l 2
 193 742 215 764 242 764 c 0xe0
242 485 m 2
 335 485 l 2
 362 485 384 463 384 436 c 2
 384 351 l 2
 384 349 384 345 384 343 c 0
 384 330 376 312 365 304 c 2
 276 215 l 2
 268 207 252 200 241 200 c 0
 214 200 192 222 192 249 c 0
 192 260 199 276 207 284 c 2
 221 298 l 1
 205 305 193 326 193 343 c 2
 193 436 l 2
 193 463 215 485 242 485 c 2
EndSplineSet
EndChar

StartChar: less
Encoding: 60 60 27
Width: 576
VWidth: 228
Flags: W
HStem: 200 21G<422.5 441.5> 837 20G<420.5 441.5>
LayerCount: 2
Back
Fore
SplineSet
426 857 m 0
 428 857 l 0
 455 857 477 835 477 808 c 0
 477 797 470 781 462 773 c 2
 217 529 l 1
 462 284 l 2
 470 276 477 260 477 249 c 0
 477 222 455 200 428 200 c 0
 417 200 400 207 392 215 c 2
 113 494 l 2
 105 502 99 518 99 529 c 0
 99 540 105 555 113 563 c 2
 392 842 l 2
 400 850 415 857 426 857 c 0
EndSplineSet
EndChar

StartChar: equal
Encoding: 61 61 28
Width: 576
VWidth: 228
Flags: W
HStem: 387 98<107.385 468.615> 573 98<107.385 468.615>
LayerCount: 2
Back
Fore
SplineSet
149 671 m 2
 428 671 l 2
 455 671 477 649 477 622 c 0
 477 595 455 573 428 573 c 0
 149 573 l 2
 148 573 l 0
 121 573 99 595 99 622 c 0
 99 649 121 671 148 671 c 0
 149 671 l 2
149 485 m 2
 428 485 l 2
 455 485 477 463 477 436 c 0
 477 409 455 387 428 387 c 0
 149 387 l 2
 148 387 l 0
 121 387 99 409 99 436 c 0
 99 463 121 485 148 485 c 0
 149 485 l 2
EndSplineSet
EndChar

StartChar: greater
Encoding: 62 62 29
Width: 576
VWidth: 228
Flags: W
HStem: 200 21G<134.5 153.5> 837 20G<134.5 153.5>
LayerCount: 2
Back
Fore
SplineSet
148 857 m 0
 159 857 175 850 183 842 c 2
 462 563 l 2
 470 555 477 540 477 529 c 0
 477 518 470 502 462 494 c 2
 183 215 l 2
 175 207 159 200 148 200 c 0
 121 200 99 222 99 249 c 0
 99 260 106 276 114 284 c 2
 358 529 l 1
 114 773 l 2
 106 781 99 797 99 808 c 0
 99 835 121 857 148 857 c 0
EndSplineSet
EndChar

StartChar: question
Encoding: 63 63 30
Width: 576
VWidth: 228
Flags: W
HStem: 200 21G<274.5 301.5> 759 98<216 360>
VStem: 240 98<209.058 383.243 394.757 480> 426 98<642 695>
LayerCount: 2
Back
Fore
SplineSet
196 857 m 0
 382 857 l 2
 393 857 408 850 416 842 c 2
 508 749 l 2
 516 741 524 726 524 715 c 2
 524 622 l 2
 524 611 516 595 508 587 c 2
 416 494 l 2
 408 486 393 480 382 480 c 2
 338 480 l 1
 338 436 l 2
 338 435 l 0
 338 416 324 396 306 389 c 1
 324 382 338 362 338 343 c 0
 338 250 l 2
 338 249 l 0
 338 222 315 200 288 200 c 0
 261 200 240 222 240 249 c 0
 240 250 l 2
 240 343 l 2
 240 362 252 382 270 389 c 1
 252 396 240 416 240 435 c 0
 240 436 l 2
 240 529 l 2
 240 556 261 578 288 578 c 2
 360 578 l 1
 426 642 l 1
 426 695 l 1
 360 759 l 1
 216 759 l 1
 136 680 l 2
 128 672 113 665 102 665 c 0
 75 665 52 687 52 714 c 0
 52 725 60 741 68 749 c 2
 160 842 l 2
 168 850 185 857 196 857 c 0
EndSplineSet
EndChar

StartChar: at
Encoding: 64 64 31
Width: 576
VWidth: 228
Flags: W
HStem: 201 191<244 358> 201 98<402 515.299>
VStem: 52 192<392 573> 332 190<395.188 573>
LayerCount: 2
Back
Fore
SplineSet
194 764 m 2x70
 380 764 l 2
 391 764 408 757 416 749 c 2
 508 656 l 2
 516 648 522 633 522 622 c 2
 522 436 l 2
 522 425 516 409 508 401 c 2
 416 308 l 2
 413 305 406 301 402 299 c 2
 474 299 l 2
 501 299 524 277 524 250 c 0
 524 223 501 201 474 201 c 0
 194 201 l 2
 183 201 168 207 160 215 c 2
 66 308 l 2
 58 316 52 332 52 343 c 2
 52 622 l 2
 52 633 58 648 66 656 c 2
 160 749 l 2
 168 757 183 764 194 764 c 2x70
244 573 m 1
 244 392 l 1
 358 392 l 1xb0
 344 400 332 419 332 435 c 0
 332 436 l 2
 332 573 l 1
 244 573 l 1
EndSplineSet
EndChar

StartChar: A
Encoding: 65 65 32
Width: 576
VWidth: 228
Flags: W
HStem: 200 21G<88.5 115.5 460.5 487.5> 480 98<152 426> 837 20G<282.5 293.5>
VStem: 54 98<209.058 480 578 601> 426 98<209.058 480 578 601>
LayerCount: 2
Back
Fore
SplineSet
288 857 m 0
 299 857 314 850 322 842 c 2
 508 656 l 2
 516 648 524 633 524 622 c 2
 524 537 l 2
 524 535 524 531 524 529 c 0
 524 527 524 523 524 521 c 2
 524 250 l 2
 524 249 l 0
 524 222 501 200 474 200 c 0
 447 200 426 222 426 249 c 0
 426 250 l 2
 426 480 l 1
 152 480 l 1
 152 250 l 2
 152 249 l 0
 152 222 129 200 102 200 c 0
 75 200 54 222 54 249 c 0
 54 250 l 2
 54 521 l 2
 54 523 52 527 52 529 c 0
 52 531 54 535 54 537 c 2
 54 622 l 2
 54 633 60 648 68 656 c 2
 254 842 l 2
 262 850 277 857 288 857 c 0
288 739 m 1
 152 601 l 1
 152 578 l 1
 426 578 l 1
 426 601 l 1
 288 739 l 1
EndSplineSet
EndChar

StartChar: B
Encoding: 66 66 33
Width: 576
VWidth: 228
Flags: W
HStem: 201 98<152 360> 480 98<152 360> 759 98<152 360>
VStem: 54 98<299 480 578 759> 426 98<363 415 642 695>
CounterMasks: 1 e0
LayerCount: 2
Back
Fore
SplineSet
102 857 m 0
 382 857 l 2
 393 857 408 850 416 842 c 2
 508 749 l 2
 516 741 524 726 524 715 c 2
 524 622 l 2
 524 611 516 595 508 587 c 2
 450 529 l 1
 508 470 l 2
 516 462 524 447 524 436 c 2
 524 343 l 2
 524 332 516 316 508 308 c 2
 416 215 l 2
 408 207 393 201 382 201 c 2
 110 201 l 2
 108 201 104 200 102 200 c 0
 91 200 76 206 68 214 c 0
 66 215 l 0
 58 223 52 239 52 250 c 0
 52 252 54 256 54 258 c 2
 54 521 l 2
 54 523 52 527 52 529 c 0
 52 531 54 535 54 537 c 2
 54 808 l 2
 54 835 75 857 102 857 c 0
152 759 m 1
 152 578 l 1
 360 578 l 1
 426 642 l 1
 426 695 l 1
 360 759 l 1
 152 759 l 1
152 480 m 1
 152 299 l 1
 360 299 l 1
 426 363 l 1
 426 415 l 1
 360 480 l 1
 152 480 l 1
EndSplineSet
EndChar

StartChar: C
Encoding: 67 67 34
Width: 576
VWidth: 228
Flags: W
HStem: 201 98<214 360> 759 98<214 360>
VStem: 52 98<363 695>
LayerCount: 2
Back
Fore
SplineSet
194 857 m 0
 380 857 l 2
 391 857 408 850 416 842 c 2
 508 749 l 2
 516 741 524 725 524 714 c 0
 524 687 501 665 474 665 c 0
 463 665 446 672 438 680 c 2
 360 759 l 1
 214 759 l 1
 150 695 l 1
 150 363 l 1
 214 299 l 1
 360 299 l 1
 438 377 l 2
 446 385 463 392 474 392 c 0
 501 392 524 370 524 343 c 0
 524 332 516 316 508 308 c 2
 416 215 l 2
 408 207 391 201 380 201 c 2
 194 201 l 2
 183 201 168 207 160 215 c 2
 66 308 l 2
 58 316 52 332 52 343 c 2
 52 715 l 2
 52 726 58 741 66 749 c 2
 160 842 l 2
 168 850 183 857 194 857 c 0
EndSplineSet
EndChar

StartChar: D
Encoding: 68 68 35
Width: 576
VWidth: 228
Flags: W
HStem: 201 98<152 360> 759 98<152 360>
VStem: 54 98<299 759> 426 98<363 695>
LayerCount: 2
Back
Fore
SplineSet
102 857 m 0
 382 857 l 2
 393 857 408 850 416 842 c 2
 508 749 l 2
 516 741 524 726 524 715 c 2
 524 343 l 2
 524 332 516 316 508 308 c 2
 416 215 l 2
 408 207 393 201 382 201 c 2
 110 201 l 2
 108 201 104 200 102 200 c 0
 91 200 76 206 68 214 c 0
 66 215 l 0
 58 223 52 239 52 250 c 0
 52 252 54 256 54 258 c 2
 54 808 l 2
 54 835 75 857 102 857 c 0
152 759 m 1
 152 299 l 1
 360 299 l 1
 426 363 l 1
 426 695 l 1
 360 759 l 1
 152 759 l 1
EndSplineSet
EndChar

StartChar: E
Encoding: 69 69 36
Width: 576
VWidth: 228
Flags: W
HStem: 201 98<152 515.299> 480 98<152 421.932> 759 98<152 515.299>
VStem: 54 98<299 480 578 759>
CounterMasks: 1 e0
LayerCount: 2
Back
Fore
SplineSet
102 857 m 1
 474 857 l 2
 501 857 524 835 524 808 c 0
 524 781 501 759 474 759 c 0
 152 759 l 1
 152 578 l 1
 382 578 l 2
 409 578 430 556 430 529 c 0
 430 502 409 480 382 480 c 0
 152 480 l 1
 152 299 l 1
 474 299 l 2
 501 299 524 277 524 250 c 0
 524 223 501 201 474 201 c 0
 102 201 l 2
 75 201 54 223 54 250 c 2
 54 521 l 2
 54 523 52 527 52 529 c 0
 52 531 54 535 54 537 c 2
 54 808 l 2
 54 835 75 857 102 857 c 1
EndSplineSet
EndChar

StartChar: F
Encoding: 70 70 37
Width: 576
VWidth: 228
Flags: W
HStem: 200 21G<88.5 115.5> 480 98<152 421.932> 759 98<152 515.299>
VStem: 54 98<209.058 480 578 759>
LayerCount: 2
Back
Fore
SplineSet
102 857 m 1
 474 857 l 2
 501 857 524 835 524 808 c 0
 524 781 501 759 474 759 c 0
 152 759 l 1
 152 578 l 1
 382 578 l 2
 409 578 430 556 430 529 c 0
 430 502 409 480 382 480 c 0
 152 480 l 1
 152 250 l 2
 152 249 l 0
 152 222 129 200 102 200 c 0
 75 200 54 222 54 249 c 0
 54 250 l 2
 54 521 l 2
 54 523 52 527 52 529 c 0
 52 531 54 535 54 537 c 2
 54 808 l 2
 54 835 75 857 102 857 c 1
EndSplineSet
EndChar

StartChar: G
Encoding: 71 71 38
Width: 576
VWidth: 228
Flags: W
HStem: 201 98<214 424> 480 98<246.068 424> 759 98<214 360>
VStem: 52 98<363 695> 238 284<487.735 570.265> 424 98<299 480>
CounterMasks: 1 e0
LayerCount: 2
Back
Fore
SplineSet
194 857 m 0xf4
 380 857 l 2
 391 857 408 850 416 842 c 2
 508 749 l 2
 516 741 524 725 524 714 c 0
 524 687 501 665 474 665 c 0
 463 665 446 672 438 680 c 2
 360 759 l 1
 214 759 l 1
 150 695 l 1
 150 363 l 1
 214 299 l 1
 424 299 l 1
 424 480 l 1xf4
 288 480 l 2
 286 480 l 0
 259 480 238 502 238 529 c 0
 238 556 259 578 286 578 c 0
 288 578 l 2
 474 578 l 2
 501 578 522 556 522 529 c 2xf8
 522 250 l 2
 522 223 501 201 474 201 c 2
 194 201 l 2
 183 201 168 207 160 215 c 2
 66 308 l 2
 58 316 52 332 52 343 c 2
 52 715 l 2
 52 726 58 741 66 749 c 2
 160 842 l 2
 168 850 183 857 194 857 c 0xf4
EndSplineSet
EndChar

StartChar: H
Encoding: 72 72 39
Width: 576
VWidth: 228
Flags: W
HStem: 200 21G<88.5 115.5 460.5 487.5> 480 98<152 426> 838 20G<88.5 115.5 460.5 487.5>
VStem: 54 98<209.058 480 578 848.942> 426 98<209.058 480 578 848.942>
LayerCount: 2
Back
Fore
SplineSet
102 858 m 0
 129 858 152 836 152 809 c 0
 152 808 l 2
 152 578 l 1
 426 578 l 1
 426 808 l 2
 426 809 l 0
 426 836 447 858 474 858 c 0
 501 858 524 836 524 809 c 0
 524 808 l 2
 524 537 l 2
 524 535 524 531 524 529 c 0
 524 527 524 523 524 521 c 2
 524 250 l 2
 524 249 l 0
 524 222 501 200 474 200 c 0
 447 200 426 222 426 249 c 0
 426 250 l 2
 426 480 l 1
 152 480 l 1
 152 250 l 2
 152 249 l 0
 152 222 129 200 102 200 c 0
 75 200 54 222 54 249 c 0
 54 250 l 2
 54 521 l 2
 54 523 52 527 52 529 c 0
 52 531 54 535 54 537 c 2
 54 808 l 2
 54 809 l 0
 54 836 75 858 102 858 c 0
EndSplineSet
EndChar

StartChar: I
Encoding: 73 73 40
Width: 576
VWidth: 228
Flags: W
HStem: 201 98<154.068 240 338 421.932> 759 98<154.068 240 338 421.932>
VStem: 240 98<299 759>
LayerCount: 2
Back
Fore
SplineSet
288 858 m 0
 290 858 294 857 296 857 c 2
 382 857 l 2
 409 857 430 835 430 808 c 0
 430 781 409 759 382 759 c 0
 338 759 l 1
 338 299 l 1
 382 299 l 2
 409 299 430 277 430 250 c 0
 430 223 409 201 382 201 c 0
 296 201 l 2
 294 201 290 200 288 200 c 0
 286 200 282 201 280 201 c 2
 196 201 l 2
 194 201 l 0
 167 201 146 223 146 250 c 0
 146 277 167 299 194 299 c 0
 196 299 l 2
 240 299 l 1
 240 759 l 1
 196 759 l 2
 194 759 l 0
 167 759 146 781 146 808 c 0
 146 835 167 857 194 857 c 0
 196 857 l 2
 280 857 l 2
 282 857 286 858 288 858 c 0
EndSplineSet
EndChar

StartChar: J
Encoding: 74 74 41
Width: 576
VWidth: 228
Flags: W
HStem: 201 98<262 314> 838 20G<413.5 441.5>
VStem: 379 98<363 849.615>
LayerCount: 2
Back
Fore
SplineSet
427 858 m 0
 428 858 l 0
 455 858 477 836 477 809 c 0
 477 808 l 2
 477 343 l 2
 477 332 470 316 462 308 c 2
 369 215 l 2
 361 207 346 201 335 201 c 2
 242 201 l 2
 231 201 215 207 207 215 c 2
 114 308 l 2
 106 316 99 332 99 343 c 0
 99 370 121 392 148 392 c 0
 159 392 175 385 183 377 c 2
 262 299 l 1
 314 299 l 1
 379 363 l 1
 379 808 l 2
 379 809 l 0
 379 836 400 858 427 858 c 0
EndSplineSet
EndChar

StartChar: K
Encoding: 75 75 42
Width: 576
VWidth: 228
Flags: W
HStem: 200 21G<88.5 115.5 468.5 487.5> 838 20G<88.5 115.5 468.5 487.5>
VStem: 52 98<209.058 415 554 848.942>
LayerCount: 2
Back
Fore
SplineSet
102 858 m 0
 129 858 150 836 150 809 c 0
 150 808 l 2
 150 554 l 1
 154 558 l 2
 157 562 162 566 166 569 c 2
 440 842 l 2
 448 850 463 857 474 857 c 0
 501 857 524 835 524 808 c 0
 524 797 516 781 508 773 c 2
 264 529 l 1
 508 284 l 2
 516 276 524 260 524 249 c 0
 524 222 501 200 474 200 c 0
 463 200 448 207 440 215 c 2
 194 459 l 1
 150 415 l 1
 150 250 l 2
 150 249 l 0
 150 222 129 200 102 200 c 0
 75 200 52 222 52 249 c 0
 52 250 l 2
 52 429 l 2
 52 431 52 433 52 435 c 0
 52 437 52 440 52 442 c 2
 52 808 l 2
 52 809 l 0
 52 836 75 858 102 858 c 0
EndSplineSet
EndChar

StartChar: L
Encoding: 76 76 43
Width: 576
VWidth: 228
Flags: W
HStem: 201 98<150 515.299> 838 20G<86.5 115.5>
VStem: 52 98<299 850.265>
LayerCount: 2
Back
Fore
SplineSet
100 858 m 0
 102 858 l 0
 129 858 150 836 150 809 c 0
 150 808 l 2
 150 299 l 1
 474 299 l 2
 501 299 524 277 524 250 c 0
 524 223 501 201 474 201 c 0
 102 201 l 2
 75 201 52 223 52 250 c 2
 52 808 l 2
 52 809 l 0
 52 836 73 858 100 858 c 0
EndSplineSet
EndChar

StartChar: M
Encoding: 77 77 44
Width: 576
VWidth: 228
Flags: W
HStem: 200 21G<88.5 115.5 460.5 487.5> 837 20G<87.5 107.5 468.5 487.5>
VStem: 53 98<208.385 690> 239 98<488.385 601> 425 98<208.385 690>
CounterMasks: 1 38
LayerCount: 2
Back
Fore
SplineSet
101 857 m 0
 102 857 l 0
 113 857 129 850 137 842 c 2
 288 691 l 1
 439 842 l 2
 447 850 463 857 474 857 c 0
 501 857 523 835 523 808 c 2
 523 250 l 2
 523 249 l 0
 523 222 501 200 474 200 c 0
 447 200 425 222 425 249 c 0
 425 250 l 2
 425 690 l 1
 337 601 l 1
 337 529 l 2
 337 502 315 480 288 480 c 0
 261 480 239 502 239 529 c 2
 239 601 l 1
 151 690 l 1
 151 250 l 2
 151 249 l 0
 151 222 129 200 102 200 c 0
 75 200 53 222 53 249 c 0
 53 250 l 2
 53 808 l 2
 53 835 74 857 101 857 c 0
EndSplineSet
EndChar

StartChar: N
Encoding: 78 78 45
Width: 576
VWidth: 228
Flags: W
HStem: 200 21G<88.5 115.5 460.5 487.5> 838 20G<88.5 115.5 460.5 487.5>
VStem: 52 98<209.058 597 735 848.942> 426 98<209.058 322 461 848.942>
LayerCount: 2
Back
Fore
SplineSet
102 858 m 0
 129 858 150 836 150 809 c 0
 150 808 l 2
 150 735 l 1
 426 461 l 1
 426 808 l 2
 426 809 l 0
 426 836 447 858 474 858 c 0
 501 858 524 836 524 809 c 0
 524 808 l 2
 524 349 l 2
 524 347 524 344 524 342 c 0
 524 340 524 338 524 336 c 2
 524 250 l 2
 524 249 l 0
 524 222 501 200 474 200 c 0
 447 200 426 222 426 249 c 0
 426 250 l 2
 426 322 l 1
 150 597 l 1
 150 250 l 2
 150 249 l 0
 150 222 129 200 102 200 c 0
 75 200 52 222 52 249 c 0
 52 250 l 2
 52 708 l 2
 52 710 52 713 52 715 c 0
 52 717 52 720 52 722 c 2
 52 808 l 2
 52 809 l 0
 52 836 75 858 102 858 c 0
EndSplineSet
EndChar

StartChar: O
Encoding: 79 79 46
Width: 576
VWidth: 228
Flags: W
HStem: 201 98<216 360> 759 98<216 360>
VStem: 52 98<363 695> 426 98<363 695>
LayerCount: 2
Back
Fore
SplineSet
194 857 m 0
 382 857 l 2
 393 857 408 850 416 842 c 2
 508 749 l 2
 516 741 524 726 524 715 c 2
 524 343 l 2
 524 332 516 316 508 308 c 2
 416 215 l 2
 408 207 393 201 382 201 c 2
 194 201 l 2
 183 201 168 207 160 215 c 2
 72 303 l 2
 66 307 59 316 56 323 c 0
 56 325 l 0
 54 330 52 338 52 343 c 0
 52 345 52 348 52 350 c 2
 52 715 l 2
 52 726 60 741 68 749 c 2
 160 842 l 2
 168 850 183 857 194 857 c 0
216 759 m 1
 150 695 l 1
 150 363 l 1
 216 299 l 1
 360 299 l 1
 426 363 l 1
 426 695 l 1
 360 759 l 1
 216 759 l 1
EndSplineSet
EndChar

StartChar: P
Encoding: 80 80 47
Width: 576
VWidth: 228
Flags: W
HStem: 200 21G<88.5 115.5> 480 98<152 360> 759 98<152 360>
VStem: 54 98<209.058 480 578 759> 426 98<642 695>
LayerCount: 2
Back
Fore
SplineSet
102 857 m 0
 382 857 l 2
 393 857 408 850 416 842 c 2
 508 749 l 2
 516 741 524 726 524 715 c 2
 524 622 l 2
 524 611 516 595 508 587 c 2
 416 494 l 2
 408 486 393 480 382 480 c 2
 152 480 l 1
 152 250 l 2
 152 249 l 0
 152 222 129 200 102 200 c 0
 75 200 54 222 54 249 c 0
 54 250 l 2
 54 521 l 2
 54 523 52 527 52 529 c 0
 52 531 54 535 54 537 c 2
 54 808 l 2
 54 835 75 857 102 857 c 0
152 759 m 1
 152 578 l 1
 360 578 l 1
 426 642 l 1
 426 695 l 1
 360 759 l 1
 152 759 l 1
EndSplineSet
EndChar

StartChar: Q
Encoding: 81 81 48
Width: 576
VWidth: 228
Flags: W
HStem: 201 98<214 356> 759 98<214 360>
VStem: 52 98<363 695> 424 98<368 695>
LayerCount: 2
Back
Fore
SplineSet
194 857 m 0
 380 857 l 2
 391 857 408 850 416 842 c 2
 508 749 l 2
 516 741 522 726 522 715 c 2
 522 343 l 2
 522 332 516 316 508 308 c 2
 496 296 l 1
 508 284 l 2
 516 276 524 260 524 249 c 0
 524 222 501 200 474 200 c 0
 463 200 446 207 438 215 c 2
 428 227 l 1
 420 220 l 2
 416 214 407 208 400 205 c 0
 398 204 l 0
 393 202 385 200 380 200 c 0
 378 200 376 201 374 201 c 2
 194 201 l 2
 183 201 168 207 160 215 c 2
 66 308 l 2
 58 316 52 332 52 343 c 2
 52 715 l 2
 52 726 58 741 66 749 c 2
 160 842 l 2
 168 850 183 857 194 857 c 0
214 759 m 1
 150 695 l 1
 150 363 l 1
 214 299 l 1
 356 299 l 1
 252 401 l 2
 244 409 238 425 238 436 c 0
 238 463 261 485 288 485 c 0
 299 485 314 478 322 470 c 2
 424 368 l 1
 424 695 l 1
 360 759 l 1
 214 759 l 1
EndSplineSet
EndChar

StartChar: R
Encoding: 82 82 49
Width: 576
VWidth: 228
Flags: W
HStem: 200 21G<88.5 115.5 468.5 487.5> 480 98<152 174 314 360> 759 98<152 360>
VStem: 54 98<209.058 480 578 759> 426 98<642 695>
LayerCount: 2
Back
Fore
SplineSet
102 857 m 0
 382 857 l 2
 393 857 408 850 416 842 c 2
 508 749 l 2
 516 741 524 726 524 715 c 2
 524 622 l 2
 524 611 516 595 508 587 c 2
 416 494 l 2
 408 486 393 480 382 480 c 2
 314 480 l 1
 508 284 l 2
 516 276 524 260 524 249 c 0
 524 222 501 200 474 200 c 0
 463 200 448 207 440 215 c 2
 174 480 l 1
 152 480 l 1
 152 250 l 2
 152 249 l 0
 152 222 129 200 102 200 c 0
 75 200 54 222 54 249 c 0
 54 250 l 2
 54 521 l 2
 54 523 52 527 52 529 c 0
 52 531 54 535 54 537 c 2
 54 808 l 2
 54 835 75 857 102 857 c 0
152 759 m 1
 152 578 l 1
 188 578 l 2
 190 578 192 578 194 578 c 0
 196 578 200 578 202 578 c 2
 360 578 l 1
 426 642 l 1
 426 695 l 1
 360 759 l 1
 152 759 l 1
EndSplineSet
EndChar

StartChar: S
Encoding: 83 83 50
Width: 576
VWidth: 228
Flags: W
HStem: 201 98<216 360> 480 98<216 360> 759 98<216 360>
VStem: 52 98<642 695> 426 98<363 415>
CounterMasks: 1 e0
LayerCount: 2
Back
Fore
SplineSet
196 857 m 0
 382 857 l 2
 393 857 408 850 416 842 c 2
 508 749 l 2
 516 741 524 725 524 714 c 0
 524 687 501 665 474 665 c 0
 463 665 448 672 440 680 c 2
 360 759 l 1
 216 759 l 1
 150 695 l 1
 150 642 l 1
 216 578 l 1
 382 578 l 2
 393 578 408 571 416 563 c 2
 508 470 l 2
 516 462 524 447 524 436 c 2
 524 343 l 2
 524 332 516 316 508 308 c 2
 416 215 l 2
 408 207 393 201 382 201 c 2
 196 201 l 2
 185 201 168 207 160 215 c 2
 68 308 l 2
 60 316 52 332 52 343 c 0
 52 370 75 392 102 392 c 0
 113 392 128 385 136 377 c 2
 216 299 l 1
 360 299 l 1
 426 363 l 1
 426 415 l 1
 360 480 l 1
 196 480 l 2
 185 480 168 486 160 494 c 2
 68 587 l 2
 60 595 52 611 52 622 c 2
 52 715 l 2
 52 726 60 741 68 749 c 2
 160 842 l 2
 168 850 185 857 196 857 c 0
EndSplineSet
EndChar

StartChar: T
Encoding: 84 84 51
Width: 576
VWidth: 228
Flags: W
HStem: 200 21G<274.5 301.5> 759 98<60.7012 240 338 515.299>
VStem: 240 98<209.058 759>
LayerCount: 2
Back
Fore
SplineSet
288 858 m 0
 290 858 294 857 296 857 c 2
 474 857 l 2
 501 857 524 835 524 808 c 0
 524 781 501 759 474 759 c 0
 338 759 l 1
 338 250 l 2
 338 249 l 0
 338 222 315 200 288 200 c 0
 261 200 240 222 240 249 c 0
 240 250 l 2
 240 759 l 1
 102 759 l 2
 75 759 52 781 52 808 c 0
 52 835 75 857 102 857 c 0
 280 857 l 2
 282 857 286 858 288 858 c 0
EndSplineSet
EndChar

StartChar: U
Encoding: 85 85 52
Width: 576
VWidth: 228
Flags: W
HStem: 201 98<215 361> 838 20G<87.5 115.5 460.5 487.5>
VStem: 53 98<363 849.615> 425 98<363 849.615>
LayerCount: 2
Back
Fore
SplineSet
101 858 m 0
 102 858 l 0
 129 858 151 836 151 809 c 0
 151 808 l 2
 151 363 l 1
 215 299 l 1
 361 299 l 1
 425 363 l 1
 425 808 l 2
 425 809 l 0
 425 836 447 858 474 858 c 0
 501 858 523 836 523 809 c 0
 523 808 l 2
 523 343 l 2
 523 332 517 316 509 308 c 2
 416 215 l 2
 408 207 392 201 381 201 c 2
 195 201 l 2
 184 201 168 207 160 215 c 2
 67 308 l 2
 59 316 53 332 53 343 c 2
 53 808 l 2
 53 809 l 0
 53 836 74 858 101 858 c 0
EndSplineSet
EndChar

StartChar: V
Encoding: 86 86 53
Width: 576
VWidth: 228
Flags: W
HStem: 201 21G<282.5 293.5> 838 20G<87.5 115.5 460.5 487.5>
VStem: 53 98<456 849.615> 425 98<456 849.615>
LayerCount: 2
Back
Fore
SplineSet
101 858 m 0
 102 858 l 0
 129 858 151 836 151 809 c 0
 151 808 l 2
 151 456 l 1
 288 319 l 1
 425 456 l 1
 425 808 l 2
 425 809 l 0
 425 836 447 858 474 858 c 0
 501 858 523 836 523 809 c 0
 523 808 l 2
 523 436 l 2
 523 425 517 409 509 401 c 2
 323 215 l 2
 315 207 299 201 288 201 c 0
 277 201 261 207 253 215 c 2
 67 401 l 2
 59 409 53 425 53 436 c 2
 53 808 l 2
 53 809 l 0
 53 836 74 858 101 858 c 0
EndSplineSet
EndChar

StartChar: W
Encoding: 87 87 54
Width: 576
VWidth: 228
Flags: W
HStem: 201 21G<88.5 107.5 468.5 487.5> 838 20G<87.5 115.5 460.5 487.5>
VStem: 53 98<368 849.615> 239 98<456 569.615> 425 98<368 849.615>
CounterMasks: 1 38
LayerCount: 2
Back
Fore
SplineSet
101 858 m 0
 102 858 l 0
 129 858 151 836 151 809 c 0
 151 808 l 2
 151 368 l 1
 239 456 l 1
 239 529 l 2
 239 556 261 578 288 578 c 0
 315 578 337 556 337 529 c 0
 337 456 l 1
 425 368 l 1
 425 808 l 2
 425 809 l 0
 425 836 447 858 474 858 c 0
 501 858 523 836 523 809 c 0
 523 808 l 2
 523 250 l 2
 523 223 501 201 474 201 c 0
 463 201 447 207 439 215 c 2
 288 366 l 1
 137 215 l 2
 129 207 113 201 102 201 c 0
 75 201 53 223 53 250 c 2
 53 808 l 2
 53 809 l 0
 53 836 74 858 101 858 c 0
EndSplineSet
EndChar

StartChar: X
Encoding: 88 88 55
Width: 576
VWidth: 228
Flags: W
HStem: 200 21G<88.5 115.5 460.5 487.5> 838 20G<87.5 115.5 460.5 487.5>
VStem: 53 98<208.385 322 735 849.615> 425 98<208.385 322 735 849.615>
LayerCount: 2
Back
Fore
SplineSet
101 858 m 0
 102 858 l 0
 129 858 151 836 151 809 c 0
 151 808 l 2
 151 735 l 1
 288 598 l 1
 425 735 l 1
 425 808 l 2
 425 809 l 0
 425 836 447 858 474 858 c 0
 501 858 523 836 523 809 c 0
 523 808 l 2
 523 715 l 2
 523 704 517 688 509 680 c 2
 357 529 l 1
 509 377 l 2
 517 369 523 354 523 343 c 2
 523 250 l 2
 523 249 l 0
 523 222 501 200 474 200 c 0
 447 200 425 222 425 249 c 0
 425 250 l 2
 425 322 l 1
 288 459 l 1
 151 322 l 1
 151 250 l 2
 151 249 l 0
 151 222 129 200 102 200 c 0
 75 200 53 222 53 249 c 0
 53 250 l 2
 53 343 l 2
 53 354 59 369 67 377 c 2
 219 529 l 1
 67 680 l 2
 59 688 53 704 53 715 c 2
 53 808 l 2
 53 809 l 0
 53 836 74 858 101 858 c 0
EndSplineSet
EndChar

StartChar: Y
Encoding: 89 89 56
Width: 576
VWidth: 228
Flags: W
HStem: 200 21G<274.5 301.5> 838 20G<87.5 115.5 460.5 487.5>
VStem: 53 98<735 849.615> 239 98<208.385 508> 425 98<735 849.615>
CounterMasks: 1 38
LayerCount: 2
Back
Fore
SplineSet
101 858 m 0
 102 858 l 0
 129 858 151 836 151 809 c 0
 151 808 l 2
 151 735 l 1
 288 598 l 1
 425 735 l 1
 425 808 l 2
 425 809 l 0
 425 836 447 858 474 858 c 0
 501 858 523 836 523 809 c 0
 523 808 l 2
 523 715 l 2
 523 704 517 688 509 680 c 2
 337 508 l 1
 337 250 l 2
 337 249 l 0
 337 222 315 200 288 200 c 0
 261 200 239 222 239 249 c 0
 239 250 l 2
 239 508 l 1
 67 680 l 2
 59 688 53 704 53 715 c 2
 53 808 l 2
 53 809 l 0
 53 836 74 858 101 858 c 0
EndSplineSet
EndChar

StartChar: Z
Encoding: 90 90 57
Width: 576
VWidth: 228
Flags: W
HStem: 201 98<152 515.299> 759 98<60.7012 426>
LayerCount: 2
Back
Fore
SplineSet
102 857 m 0
 474 857 l 2
 501 857 524 835 524 808 c 2
 524 715 l 2
 524 704 516 688 508 680 c 2
 152 322 l 1
 152 299 l 1
 474 299 l 2
 501 299 524 277 524 250 c 0
 524 223 501 201 474 201 c 0
 102 201 l 2
 75 201 54 223 54 250 c 2
 54 343 l 2
 54 354 60 369 68 377 c 2
 426 735 l 1
 426 759 l 1
 102 759 l 2
 75 759 52 781 52 808 c 0
 52 835 75 857 102 857 c 0
EndSplineSet
EndChar

StartChar: bracketleft
Encoding: 91 91 58
Width: 576
VWidth: 228
Flags: W
HStem: 201 98<244 421.932> 759 98<244 421.932>
VStem: 146 98<299 759>
LayerCount: 2
Back
Fore
SplineSet
194 857 m 0
 380 857 l 2
 382 857 l 0
 409 857 430 835 430 808 c 0
 430 781 409 759 382 759 c 0
 380 759 l 2
 244 759 l 1
 244 299 l 1
 380 299 l 2
 382 299 l 0
 409 299 430 277 430 250 c 0
 430 223 409 201 382 201 c 0
 380 201 l 2
 194 201 l 2
 167 201 146 223 146 250 c 2
 146 808 l 2
 146 835 167 857 194 857 c 0
EndSplineSet
EndChar

StartChar: backslash
Encoding: 92 92 59
Width: 576
VWidth: 228
Flags: W
HStem: 200 21G<515.5 534.5>
LayerCount: 2
Back
Fore
SplineSet
55 764 m 0
 66 764 82 757 90 749 c 2
 555 284 l 2
 563 276 570 260 570 249 c 0
 570 222 548 200 521 200 c 0
 510 200 494 207 486 215 c 2
 21 680 l 2
 13 688 6 704 6 715 c 0
 6 742 28 764 55 764 c 0
EndSplineSet
EndChar

StartChar: bracketright
Encoding: 93 93 60
Width: 576
VWidth: 228
Flags: W
HStem: 201 98<154.068 332> 759 98<154.068 332>
VStem: 332 98<299 759>
LayerCount: 2
Back
Fore
SplineSet
196 857 m 0
 382 857 l 2
 409 857 430 835 430 808 c 2
 430 250 l 2
 430 223 409 201 382 201 c 2
 196 201 l 2
 194 201 l 0
 167 201 146 223 146 250 c 0
 146 277 167 299 194 299 c 0
 196 299 l 2
 332 299 l 1
 332 759 l 1
 196 759 l 2
 194 759 l 0
 167 759 146 781 146 808 c 0
 146 835 167 857 194 857 c 0
 196 857 l 0
EndSplineSet
EndChar

StartChar: asciicircum
Encoding: 94 94 61
Width: 576
VWidth: 228
Flags: W
HStem: 479 285
LayerCount: 2
Back
Fore
SplineSet
288 764 m 0
 299 764 314 757 322 749 c 2
 508 563 l 2
 516 555 524 539 524 528 c 0
 524 501 501 479 474 479 c 0
 463 479 448 486 440 494 c 2
 288 646 l 1
 136 494 l 2
 128 486 113 479 102 479 c 0
 75 479 52 501 52 528 c 0
 52 539 60 555 68 563 c 2
 254 749 l 2
 262 757 277 764 288 764 c 0
EndSplineSet
EndChar

StartChar: underscore
Encoding: 95 95 62
Width: 576
VWidth: 228
Flags: W
HStem: 108 98<-79.2988 655.299>
LayerCount: 2
Back
Fore
SplineSet
-38 206 m 0
 614 206 l 2
 641 206 664 184 664 157 c 0
 664 130 641 108 614 108 c 0
 -38 108 l 2
 -65 108 -88 130 -88 157 c 0
 -88 184 -65 206 -38 206 c 0
EndSplineSet
EndChar

StartChar: grave
Encoding: 96 96 63
Width: 576
VWidth: 228
Flags: W
HStem: 572 285
VStem: 192 192
LayerCount: 2
Back
Fore
SplineSet
242 857 m 0
 259 857 278 845 285 830 c 2
 378 644 l 2
 381 638 384 628 384 621 c 0
 384 594 362 572 335 572 c 0
 318 572 298 585 291 600 c 2
 197 786 l 2
 194 792 192 801 192 808 c 0
 192 835 214 857 241 857 c 0
 242 857 l 0
EndSplineSet
EndChar

StartChar: a
Encoding: 97 97 64
Width: 576
VWidth: 228
Flags: W
HStem: 201 98<216 268> 573 98<60.7012 174>
VStem: 54 98<363 415> 332 98<363 415>
LayerCount: 2
Back
Fore
SplineSet
102 671 m 0
 288 671 l 2
 299 671 314 664 322 656 c 2
 416 563 l 2
 424 555 430 540 430 529 c 2
 430 442 l 2
 430 440 430 437 430 435 c 0
 430 433 430 431 430 429 c 2
 430 363 l 1
 508 284 l 2
 516 276 524 260 524 249 c 0
 524 222 501 200 474 200 c 0
 463 200 448 207 440 215 c 2
 382 273 l 1
 322 215 l 2
 314 207 299 201 288 201 c 2
 196 201 l 2
 185 201 168 207 160 215 c 2
 68 308 l 2
 60 316 54 332 54 343 c 2
 54 436 l 2
 54 447 60 462 68 470 c 2
 160 563 l 2
 163 566 170 571 174 573 c 2
 102 573 l 2
 75 573 52 595 52 622 c 0
 52 649 75 671 102 671 c 0
216 480 m 1
 152 415 l 1
 152 363 l 1
 216 299 l 1
 268 299 l 1
 332 363 l 1
 332 415 l 1
 268 480 l 1
 216 480 l 1
EndSplineSet
EndChar

StartChar: b
Encoding: 98 98 65
Width: 576
VWidth: 228
Flags: W
HStem: 201 98<198 314> 573 98<198 314> 838 20G<134.5 162.5>
VStem: 100 98<299 573 671 849.615> 379 98<363 508>
LayerCount: 2
Back
Fore
SplineSet
148 858 m 0
 149 858 l 0
 176 858 198 836 198 809 c 0
 198 808 l 2
 198 671 l 1
 335 671 l 2
 346 671 361 664 369 656 c 2
 462 563 l 2
 470 555 477 540 477 529 c 2
 477 343 l 2
 477 332 470 316 462 308 c 2
 369 215 l 2
 361 207 346 201 335 201 c 2
 149 201 l 2
 122 201 100 223 100 250 c 2
 100 614 l 2
 100 616 99 620 99 622 c 0
 99 624 100 628 100 630 c 2
 100 808 l 2
 100 809 l 0
 100 836 121 858 148 858 c 0
198 573 m 1
 198 299 l 1
 314 299 l 1
 379 363 l 1
 379 508 l 1
 314 573 l 1
 198 573 l 1
EndSplineSet
EndChar

StartChar: c
Encoding: 99 99 66
Width: 576
VWidth: 228
Flags: W
HStem: 201 98<261 314> 573 98<261 314>
VStem: 99 98<363 508>
LayerCount: 2
Back
Fore
SplineSet
241 671 m 2
 334 671 l 2
 345 671 361 664 369 656 c 2
 462 563 l 2
 470 555 477 539 477 528 c 0
 477 501 455 479 428 479 c 0
 417 479 400 486 392 494 c 2
 314 573 l 1
 261 573 l 1
 197 508 l 1
 197 363 l 1
 261 299 l 1
 314 299 l 1
 392 377 l 2
 400 385 417 392 428 392 c 0
 455 392 477 370 477 343 c 0
 477 332 470 316 462 308 c 2
 369 215 l 2
 361 207 345 201 334 201 c 2
 241 201 l 2
 230 201 214 207 206 215 c 2
 113 308 l 2
 105 316 99 332 99 343 c 2
 99 529 l 2
 99 540 105 555 113 563 c 2
 206 656 l 2
 214 664 230 671 241 671 c 2
EndSplineSet
EndChar

StartChar: d
Encoding: 100 100 67
Width: 576
VWidth: 228
Flags: W
HStem: 201 98<261 378> 573 98<261 378> 838 20G<412.5 440.5>
VStem: 99 98<363 508> 378 98<299 573 671 849.615>
LayerCount: 2
Back
Fore
SplineSet
426 858 m 0
 427 858 l 0
 454 858 476 836 476 809 c 0
 476 808 l 2
 476 630 l 2
 476 628 477 624 477 622 c 0
 477 620 476 616 476 614 c 2
 476 250 l 2
 476 223 454 201 427 201 c 2
 241 201 l 2
 230 201 214 207 206 215 c 2
 113 308 l 2
 105 316 99 332 99 343 c 2
 99 529 l 2
 99 540 105 555 113 563 c 2
 206 656 l 2
 214 664 230 671 241 671 c 2
 378 671 l 1
 378 808 l 2
 378 809 l 0
 378 836 399 858 426 858 c 0
261 573 m 1
 197 508 l 1
 197 363 l 1
 261 299 l 1
 378 299 l 1
 378 573 l 1
 261 573 l 1
EndSplineSet
EndChar

StartChar: e
Encoding: 101 101 68
Width: 576
VWidth: 228
Flags: W
HStem: 201 98<262 468.615> 387 98<198 379> 573 98<262 314>
VStem: 100 98<363 387 485 508>
CounterMasks: 1 e0
LayerCount: 2
Back
Fore
SplineSet
242 671 m 2
 335 671 l 2
 346 671 361 664 369 656 c 2
 462 563 l 2
 470 555 477 540 477 529 c 2
 477 436 l 2
 477 409 455 387 428 387 c 2
 198 387 l 1
 198 363 l 1
 262 299 l 1
 428 299 l 2
 455 299 477 277 477 250 c 0
 477 223 455 201 428 201 c 0
 242 201 l 2
 231 201 215 207 207 215 c 2
 114 308 l 2
 106 316 100 332 100 343 c 2
 100 428 l 2
 100 430 99 434 99 436 c 0
 99 438 100 442 100 444 c 2
 100 529 l 2
 100 540 106 555 114 563 c 2
 207 656 l 2
 215 664 231 671 242 671 c 2
262 573 m 1
 198 508 l 1
 198 485 l 1
 379 485 l 1
 379 508 l 1
 314 573 l 1
 262 573 l 1
EndSplineSet
EndChar

StartChar: f
Encoding: 102 102 69
Width: 576
VWidth: 228
Flags: W
HStem: 200 21G<274.5 301.5> 480 98<154.068 240 338 421.932> 759 98<338 421.932>
VStem: 240 98<209.058 480 578 759>
LayerCount: 2
Back
Fore
SplineSet
288 857 m 1
 382 857 l 2
 409 857 430 835 430 808 c 0
 430 781 409 759 382 759 c 0
 338 759 l 1
 338 578 l 1
 382 578 l 2
 409 578 430 556 430 529 c 0
 430 502 409 480 382 480 c 0
 338 480 l 1
 338 250 l 2
 338 249 l 0
 338 222 315 200 288 200 c 0
 261 200 240 222 240 249 c 0
 240 250 l 2
 240 480 l 1
 196 480 l 2
 194 480 l 0
 167 480 146 502 146 529 c 0
 146 556 167 578 194 578 c 0
 196 578 l 2
 240 578 l 1
 240 808 l 2
 240 835 261 857 288 857 c 1
EndSplineSet
EndChar

StartChar: g
Encoding: 103 103 70
Width: 576
VWidth: 228
Flags: W
HStem: 108 98<262 314> 294 98<262 314> 573 98<262 314>
VStem: 100 98<456 508> 379 98<270 317 456 508>
LayerCount: 2
Back
Fore
SplineSet
242 671 m 2
 335 671 l 2
 346 671 361 664 369 656 c 2
 462 563 l 2
 470 555 477 540 477 529 c 2
 477 443 l 2
 477 441 477 438 477 436 c 0
 477 434 477 432 477 430 c 2
 477 250 l 2
 477 239 470 223 462 215 c 2
 369 122 l 2
 361 114 346 108 335 108 c 2
 242 108 l 2
 231 108 215 114 207 122 c 2
 114 215 l 2
 106 223 99 239 99 250 c 0
 99 277 121 299 148 299 c 0
 159 299 175 292 183 284 c 2
 262 206 l 1
 314 206 l 1
 379 270 l 1
 379 317 l 1
 369 308 l 2
 361 300 346 294 335 294 c 2
 242 294 l 2
 231 294 215 300 207 308 c 2
 114 401 l 2
 106 409 100 425 100 436 c 2
 100 529 l 2
 100 540 106 555 114 563 c 2
 207 656 l 2
 215 664 231 671 242 671 c 2
262 573 m 1
 198 508 l 1
 198 456 l 1
 262 392 l 1
 314 392 l 1
 379 456 l 1
 379 508 l 1
 314 573 l 1
 262 573 l 1
EndSplineSet
EndChar

StartChar: h
Encoding: 104 104 71
Width: 576
VWidth: 228
Flags: W
HStem: 200 21G<135.5 162.5 414.5 441.5> 573 98<198 314> 838 20G<134.5 162.5>
VStem: 100 98<208.385 573 671 849.615> 379 98<208.385 508>
LayerCount: 2
Back
Fore
SplineSet
148 858 m 0
 149 858 l 0
 176 858 198 836 198 809 c 0
 198 808 l 2
 198 671 l 1
 335 671 l 2
 346 671 361 664 369 656 c 2
 462 563 l 2
 470 555 477 540 477 529 c 2
 477 250 l 2
 477 249 l 0
 477 222 455 200 428 200 c 0
 401 200 379 222 379 249 c 0
 379 250 l 2
 379 508 l 1
 314 573 l 1
 198 573 l 1
 198 250 l 2
 198 249 l 0
 198 222 176 200 149 200 c 0
 122 200 100 222 100 249 c 0
 100 250 l 2
 100 614 l 2
 100 616 99 620 99 622 c 0
 99 624 100 628 100 630 c 2
 100 808 l 2
 100 809 l 0
 100 836 121 858 148 858 c 0
EndSplineSet
EndChar

StartChar: i
Encoding: 105 105 72
Width: 576
VWidth: 228
Flags: W
HStem: 200 21G<274.5 301.5>
VStem: 239 98<208.385 569.243 580.757 756.615>
LayerCount: 2
Back
Fore
SplineSet
287 765 m 0
 288 765 l 0
 315 765 337 743 337 716 c 0
 337 715 l 2
 337 622 l 2
 337 621 l 0
 337 602 323 582 305 575 c 1
 323 568 337 548 337 529 c 0
 337 250 l 2
 337 249 l 0
 337 222 315 200 288 200 c 0
 261 200 239 222 239 249 c 0
 239 250 l 2
 239 529 l 2
 239 548 253 568 271 575 c 1
 253 582 239 602 239 621 c 0
 239 622 l 2
 239 715 l 2
 239 716 l 0
 239 743 260 765 287 765 c 0
EndSplineSet
EndChar

StartChar: j
Encoding: 106 106 73
Width: 576
VWidth: 228
Flags: W
HStem: 108 98<262 314>
VStem: 379 98<270 569.243 580.757 756.615>
LayerCount: 2
Back
Fore
SplineSet
427 765 m 0
 428 765 l 0
 455 765 477 743 477 716 c 0
 477 715 l 2
 477 622 l 2
 477 621 l 0
 477 602 463 582 445 575 c 1
 463 568 477 548 477 529 c 0
 477 250 l 2
 477 239 470 223 462 215 c 2
 369 122 l 2
 361 114 346 108 335 108 c 2
 242 108 l 2
 231 108 215 114 207 122 c 2
 114 215 l 2
 106 223 99 239 99 250 c 0
 99 277 121 299 148 299 c 0
 159 299 175 292 183 284 c 2
 262 206 l 1
 314 206 l 1
 379 270 l 1
 379 529 l 2
 379 548 392 568 410 575 c 1
 392 582 379 602 379 621 c 0
 379 622 l 2
 379 715 l 2
 379 716 l 0
 379 743 400 765 427 765 c 0
EndSplineSet
EndChar

StartChar: k
Encoding: 107 107 74
Width: 576
VWidth: 228
Flags: W
HStem: 200 21G<134.5 161.5 422.5 441.5> 651 20G<422.5 441.5> 838 20G<134.5 161.5>
VStem: 99 98<208.385 322 461 849.615>
LayerCount: 2
Back
Fore
SplineSet
148 858 m 0
 175 858 197 836 197 809 c 0
 197 808 l 2
 197 461 l 1
 201 465 l 2
 204 469 208 473 212 476 c 2
 393 656 l 2
 401 664 417 671 428 671 c 0
 455 671 477 649 477 622 c 0
 477 611 470 595 462 587 c 2
 311 436 l 1
 462 284 l 2
 470 276 477 260 477 249 c 0
 477 222 455 200 428 200 c 0
 417 200 401 207 393 215 c 2
 241 366 l 1
 197 322 l 1
 197 250 l 2
 197 249 l 0
 197 222 175 200 148 200 c 0
 121 200 99 222 99 249 c 0
 99 250 l 2
 99 336 l 2
 99 338 99 340 99 342 c 0
 99 344 99 347 99 349 c 2
 99 808 l 2
 99 809 l 0
 99 836 121 858 148 858 c 0
EndSplineSet
EndChar

StartChar: l
Encoding: 108 108 75
Width: 576
VWidth: 228
Flags: W
HStem: 201 98<290 375.615> 838 20G<226.5 254.5>
VStem: 192 192<209.385 290.615> 192 98<299 849.615>
LayerCount: 2
Back
Fore
SplineSet
240 858 m 0xd0
 241 858 l 0
 268 858 290 836 290 809 c 0
 290 808 l 2
 290 299 l 1xd0
 334 299 l 2
 335 299 l 0
 362 299 384 277 384 250 c 0
 384 223 362 201 335 201 c 0
 334 201 l 2
 241 201 l 2
 214 201 192 223 192 250 c 2xe0
 192 808 l 2
 192 809 l 0
 192 836 213 858 240 858 c 0xd0
EndSplineSet
EndChar

StartChar: m
Encoding: 109 109 76
Width: 576
VWidth: 228
Flags: W
HStem: 200 21G<88.5 115.5 274.5 301.5 460.5 487.5> 651 20G<88.5 110.5 188.5 199.5 376.5 387.5>
VStem: 52 98<209.058 508> 238 98<209.058 508> 426 98<209.058 508>
LayerCount: 2
Back
Fore
SplineSet
102 671 m 0
 119 671 139 659 146 643 c 1
 160 656 l 2
 168 664 183 671 194 671 c 0
 205 671 222 664 230 656 c 2
 288 598 l 1
 346 656 l 2
 354 664 371 671 382 671 c 0
 393 671 408 664 416 656 c 2
 508 563 l 2
 516 555 524 540 524 529 c 2
 524 250 l 2
 524 249 l 0
 524 222 501 200 474 200 c 0
 447 200 426 222 426 249 c 0
 426 250 l 2
 426 508 l 1
 382 552 l 1
 336 508 l 1
 336 250 l 2
 336 249 l 0
 336 222 315 200 288 200 c 0
 261 200 238 222 238 249 c 0
 238 250 l 2
 238 508 l 1
 194 552 l 1
 150 508 l 1
 150 250 l 2
 150 249 l 0
 150 222 129 200 102 200 c 0
 75 200 52 222 52 249 c 0
 52 250 l 2
 52 522 l 2
 52 524 52 526 52 528 c 0
 52 530 52 533 52 535 c 2
 52 622 l 2
 52 649 75 671 102 671 c 0
EndSplineSet
EndChar

StartChar: n
Encoding: 110 110 77
Width: 576
VWidth: 228
Flags: W
HStem: 200 21G<134.5 161.5 414.5 441.5> 573 98<262 314>
VStem: 100 98<209.058 508> 378 98<209.058 508>
LayerCount: 2
Back
Fore
SplineSet
242 671 m 2
 334 671 l 2
 345 671 362 664 370 656 c 2
 462 563 l 2
 470 555 476 540 476 529 c 2
 476 250 l 2
 476 249 l 0
 476 222 455 200 428 200 c 0
 401 200 378 222 378 249 c 0
 378 250 l 2
 378 508 l 1
 314 573 l 1
 262 573 l 1
 198 508 l 1
 198 250 l 2
 198 249 l 0
 198 222 175 200 148 200 c 0
 121 200 100 222 100 249 c 0
 100 250 l 2
 100 529 l 1
 100 622 l 2
 100 649 121 670 148 670 c 0
 165 670 185 657 192 642 c 1
 206 656 l 2
 214 664 231 671 242 671 c 2
EndSplineSet
EndChar

StartChar: o
Encoding: 111 111 78
Width: 576
VWidth: 228
Flags: W
HStem: 201 98<262 314> 573 98<262 314>
VStem: 99 98<363 508> 379 98<363 508>
LayerCount: 2
Back
Fore
SplineSet
241 671 m 2
 334 671 l 2
 345 671 361 664 369 656 c 2
 462 563 l 2
 470 555 477 540 477 529 c 2
 477 343 l 2
 477 332 470 316 462 308 c 2
 369 215 l 2
 361 207 345 201 334 201 c 2
 241 201 l 2
 230 201 215 207 207 215 c 2
 119 303 l 2
 113 307 106 316 103 323 c 0
 103 325 l 0
 101 330 99 338 99 343 c 0
 99 345 99 348 99 350 c 2
 99 529 l 2
 99 540 106 555 114 563 c 2
 207 656 l 2
 215 664 230 671 241 671 c 2
262 573 m 1
 197 508 l 1
 197 363 l 1
 262 299 l 1
 314 299 l 1
 379 363 l 1
 379 508 l 1
 314 573 l 1
 262 573 l 1
EndSplineSet
EndChar

StartChar: p
Encoding: 112 112 79
Width: 576
VWidth: 228
Flags: W
HStem: 107 21G<135.5 162.5> 294 98<198 314> 573 98<198 314>
VStem: 100 98<115.385 294 392 573> 379 98<456 508>
LayerCount: 2
Back
Fore
SplineSet
149 671 m 2
 335 671 l 2
 346 671 361 664 369 656 c 2
 462 563 l 2
 470 555 477 540 477 529 c 2
 477 436 l 2
 477 425 470 409 462 401 c 2
 369 308 l 2
 361 300 346 294 335 294 c 2
 198 294 l 1
 198 157 l 2
 198 156 l 0
 198 129 176 107 149 107 c 0
 122 107 100 129 100 156 c 0
 100 157 l 2
 100 335 l 2
 100 337 99 341 99 343 c 0
 99 345 100 349 100 351 c 2
 100 622 l 2
 100 649 122 671 149 671 c 2
198 573 m 1
 198 392 l 1
 314 392 l 1
 379 456 l 1
 379 508 l 1
 314 573 l 1
 198 573 l 1
EndSplineSet
EndChar

StartChar: q
Encoding: 113 113 80
Width: 576
VWidth: 228
Flags: W
HStem: 108 98<430 515.299> 294 98<214 332> 573 98<214 332>
VStem: 52 98<456 508> 332 192<117.058 196.942> 332 98<206 294 392 573>
LayerCount: 2
Back
Fore
SplineSet
194 671 m 2xf4
 380 671 l 2
 407 671 430 649 430 622 c 2
 430 351 l 2
 430 349 430 345 430 343 c 0
 430 341 430 337 430 335 c 2
 430 206 l 1xf4
 474 206 l 2
 501 206 524 184 524 157 c 0
 524 130 501 108 474 108 c 0
 380 108 l 2
 353 108 332 130 332 157 c 2xf8
 332 294 l 1
 194 294 l 2
 183 294 168 300 160 308 c 2
 66 401 l 2
 58 409 52 425 52 436 c 2
 52 529 l 2
 52 540 58 555 66 563 c 2
 160 656 l 2
 168 664 183 671 194 671 c 2xf4
214 573 m 1
 150 508 l 1
 150 456 l 1
 214 392 l 1
 332 392 l 1
 332 573 l 1
 214 573 l 1
EndSplineSet
EndChar

StartChar: r
Encoding: 114 114 81
Width: 576
VWidth: 228
Flags: W
HStem: 200 21G<228.5 255.5> 573 98<355 468.615>
VStem: 193 98<208.385 508>
LayerCount: 2
Back
Fore
SplineSet
148 671 m 0
 159 671 175 664 183 656 c 2
 242 598 l 1
 300 656 l 2
 308 664 324 671 335 671 c 2
 428 671 l 2
 455 671 477 649 477 622 c 0
 477 595 455 573 428 573 c 0
 355 573 l 1
 291 508 l 1
 291 250 l 2
 291 249 l 0
 291 222 269 200 242 200 c 0
 215 200 193 222 193 249 c 0
 193 250 l 2
 193 508 l 1
 114 587 l 2
 106 595 99 611 99 622 c 0
 99 649 121 671 148 671 c 0
EndSplineSet
EndChar

StartChar: s
Encoding: 115 115 82
Width: 576
VWidth: 228
Flags: W
HStem: 201 98<262 314> 387 98<262 314> 573 98<262 314>
CounterMasks: 1 e0
LayerCount: 2
Back
Fore
SplineSet
242 671 m 2
 335 671 l 2
 346 671 361 664 369 656 c 2
 462 563 l 2
 470 555 477 539 477 528 c 0
 477 501 455 479 428 479 c 0
 417 479 401 486 393 494 c 2
 314 573 l 1
 262 573 l 1
 218 529 l 1
 262 485 l 1
 335 485 l 2
 346 485 361 478 369 470 c 2
 462 377 l 2
 470 369 477 354 477 343 c 0
 477 332 470 316 462 308 c 2
 369 215 l 2
 361 207 346 201 335 201 c 2
 242 201 l 2
 231 201 215 207 207 215 c 2
 114 308 l 2
 106 316 99 332 99 343 c 0
 99 370 121 392 148 392 c 0
 159 392 175 385 183 377 c 2
 262 299 l 1
 314 299 l 1
 358 343 l 1
 314 387 l 1
 242 387 l 2
 231 387 215 393 207 401 c 2
 114 494 l 2
 106 502 99 518 99 529 c 0
 99 540 106 555 114 563 c 2
 207 656 l 2
 215 664 231 671 242 671 c 2
EndSplineSet
EndChar

StartChar: t
Encoding: 116 116 83
Width: 576
VWidth: 228
Flags: W
HStem: 201 98<338 421.932> 573 98<154.068 240 338 421.932> 838 20G<274.5 301.5>
VStem: 240 190<208.735 291.265> 240 98<299 573 671 848.942>
LayerCount: 2
Back
Fore
SplineSet
288 858 m 0xe8
 315 858 338 836 338 809 c 0
 338 808 l 2
 338 671 l 1xe8
 382 671 l 2
 409 671 430 649 430 622 c 0xf0
 430 595 409 573 382 573 c 0
 338 573 l 1
 338 299 l 1xe8
 382 299 l 2
 409 299 430 277 430 250 c 0
 430 223 409 201 382 201 c 0
 288 201 l 2
 261 201 240 223 240 250 c 2xf0
 240 573 l 1
 196 573 l 2
 194 573 l 0
 167 573 146 595 146 622 c 0
 146 649 167 671 194 671 c 0
 196 671 l 2
 240 671 l 1
 240 808 l 2
 240 809 l 0
 240 836 261 858 288 858 c 0xe8
EndSplineSet
EndChar

StartChar: u
Encoding: 117 117 84
Width: 576
VWidth: 228
Flags: W
HStem: 201 98<198 378> 651 20G<134.5 161.5 414.5 441.5>
VStem: 100 98<299 661.942> 378 98<299 661.942>
LayerCount: 2
Back
Fore
SplineSet
148 671 m 0
 175 671 198 649 198 622 c 0
 198 299 l 1
 378 299 l 1
 378 622 l 2
 378 649 401 671 428 671 c 0
 455 671 476 649 476 622 c 0
 476 250 l 2
 476 223 455 201 428 201 c 2
 148 201 l 2
 121 201 100 223 100 250 c 2
 100 622 l 2
 100 649 121 671 148 671 c 0
EndSplineSet
EndChar

StartChar: v
Encoding: 118 118 85
Width: 576
VWidth: 228
Flags: W
HStem: 201 21G<282.5 293.5> 651 20G<87.5 115.5 460.5 487.5>
VStem: 53 98<456 662.615> 425 98<456 662.615>
LayerCount: 2
Back
Fore
SplineSet
101 671 m 0
 102 671 l 0
 129 671 151 649 151 622 c 0
 151 456 l 1
 288 319 l 1
 425 456 l 1
 425 622 l 2
 425 649 447 671 474 671 c 0
 501 671 523 649 523 622 c 0
 523 436 l 2
 523 425 517 409 509 401 c 2
 323 215 l 2
 315 207 299 201 288 201 c 0
 277 201 261 207 253 215 c 2
 67 401 l 2
 59 409 53 425 53 436 c 2
 53 622 l 2
 53 649 74 671 101 671 c 0
EndSplineSet
EndChar

StartChar: w
Encoding: 119 119 86
Width: 576
VWidth: 228
Flags: W
HStem: 201 21G<189.5 200.5 375.5 386.5> 651 20G<87.5 115.5 460.5 487.5>
VStem: 53 98<363 662.615> 239 98<363 475.932> 425 98<363 662.615>
CounterMasks: 1 38
LayerCount: 2
Back
Fore
SplineSet
101 671 m 0
 102 671 l 0
 129 671 151 649 151 622 c 0
 151 363 l 1
 195 319 l 1
 239 363 l 1
 239 436 l 2
 239 463 261 484 288 484 c 0
 315 484 337 463 337 436 c 2
 337 363 l 1
 381 319 l 1
 425 363 l 1
 425 622 l 2
 425 649 447 671 474 671 c 0
 501 671 523 649 523 622 c 0
 523 343 l 2
 523 332 517 316 509 308 c 2
 416 215 l 2
 408 207 392 201 381 201 c 0
 370 201 354 207 346 215 c 2
 288 273 l 1
 230 215 l 2
 222 207 206 201 195 201 c 0
 184 201 168 207 160 215 c 2
 67 308 l 2
 59 316 53 332 53 343 c 2
 53 622 l 2
 53 649 74 671 101 671 c 0
EndSplineSet
EndChar

StartChar: x
Encoding: 120 120 87
Width: 576
VWidth: 228
Flags: W
HStem: 200 21G<88.5 107.5 468.5 487.5> 651 20G<88.5 107.5 468.5 487.5>
LayerCount: 2
Back
Fore
SplineSet
102 671 m 0
 113 671 128 664 136 656 c 2
 288 505 l 1
 440 656 l 2
 448 664 463 671 474 671 c 0
 501 671 524 649 524 622 c 0
 524 611 516 595 508 587 c 2
 358 436 l 1
 508 284 l 2
 516 276 524 260 524 249 c 0
 524 222 501 200 474 200 c 0
 463 200 448 207 440 215 c 2
 288 366 l 1
 136 215 l 2
 128 207 113 200 102 200 c 0
 75 200 52 222 52 249 c 0
 52 260 60 276 68 284 c 2
 218 436 l 1
 68 587 l 2
 60 595 52 611 52 622 c 0
 52 649 75 671 102 671 c 0
EndSplineSet
EndChar

StartChar: y
Encoding: 121 121 88
Width: 576
VWidth: 228
Flags: W
HStem: 107 21G<88.5 107.5> 651 20G<88.5 115.5 460.5 487.5>
VStem: 52 98<549 661.942> 426 98<549 661.942>
LayerCount: 2
Back
Fore
SplineSet
102 671 m 0
 129 671 150 649 150 622 c 0
 150 549 l 1
 288 412 l 1
 426 549 l 1
 426 622 l 2
 426 649 447 671 474 671 c 0
 501 671 524 649 524 622 c 0
 524 529 l 2
 524 518 516 502 508 494 c 2
 328 314 l 2
 325 310 322 305 318 302 c 2
 136 122 l 2
 128 114 113 107 102 107 c 0
 75 107 52 129 52 156 c 0
 52 167 60 183 68 191 c 2
 218 343 l 1
 68 494 l 2
 60 502 52 518 52 529 c 2
 52 622 l 2
 52 649 75 671 102 671 c 0
EndSplineSet
EndChar

StartChar: z
Encoding: 122 122 89
Width: 576
VWidth: 228
Flags: W
HStem: 201 98<220 515.299> 573 98<60.7012 356>
LayerCount: 2
Back
Fore
SplineSet
102 671 m 0
 474 671 l 2
 501 671 524 649 524 622 c 0
 524 611 516 595 508 587 c 2
 220 299 l 1
 474 299 l 2
 501 299 524 277 524 250 c 0
 524 223 501 201 474 201 c 0
 102 201 l 2
 75 201 54 223 54 250 c 0
 54 261 60 276 68 284 c 2
 356 573 l 1
 102 573 l 2
 75 573 52 595 52 622 c 0
 52 649 75 671 102 671 c 0
EndSplineSet
EndChar

StartChar: braceleft
Encoding: 123 123 90
Width: 576
VWidth: 228
Flags: W
HStem: 201 98<308 421.932> 759 98<308 421.932>
VStem: 146 284
LayerCount: 2
Back
Fore
SplineSet
288 857 m 0
 380 857 l 2
 382 857 l 0
 409 857 430 835 430 808 c 0
 430 781 409 759 382 759 c 0
 380 759 l 2
 308 759 l 1
 264 715 l 1
 322 656 l 2
 330 648 336 633 336 622 c 0
 336 611 330 595 322 587 c 2
 264 529 l 1
 322 470 l 2
 330 462 336 447 336 436 c 0
 336 425 330 409 322 401 c 2
 264 343 l 1
 308 299 l 1
 380 299 l 2
 382 299 l 0
 409 299 430 277 430 250 c 0
 430 223 409 201 382 201 c 0
 380 201 l 2
 288 201 l 2
 277 201 260 207 252 215 c 2
 160 308 l 2
 152 316 146 332 146 343 c 0
 146 354 152 369 160 377 c 2
 218 436 l 1
 160 494 l 2
 152 502 146 518 146 529 c 0
 146 540 152 555 160 563 c 2
 218 622 l 1
 160 680 l 2
 152 688 146 704 146 715 c 0
 146 726 152 741 160 749 c 2
 252 842 l 2
 260 850 277 857 288 857 c 0
EndSplineSet
EndChar

StartChar: bar
Encoding: 124 124 91
Width: 576
VWidth: 228
Flags: W
HStem: 107 21G<274.5 301.5> 838 20G<273.5 301.5>
VStem: 239 98<115.385 849.615>
LayerCount: 2
Back
Fore
SplineSet
287 858 m 0
 288 858 l 0
 315 858 337 836 337 809 c 0
 337 808 l 2
 337 157 l 2
 337 156 l 0
 337 129 315 107 288 107 c 0
 261 107 239 129 239 156 c 0
 239 157 l 2
 239 808 l 2
 239 809 l 0
 239 836 260 858 287 858 c 0
EndSplineSet
EndChar

StartChar: braceright
Encoding: 125 125 92
Width: 576
VWidth: 228
Flags: W
HStem: 201 98<154.068 268> 759 98<154.068 268>
VStem: 146 284
LayerCount: 2
Back
Fore
SplineSet
196 857 m 1
 288 857 l 2
 299 857 314 850 322 842 c 2
 416 749 l 2
 424 741 430 726 430 715 c 0
 430 704 424 688 416 680 c 2
 358 622 l 1
 416 563 l 2
 424 555 430 540 430 529 c 0
 430 518 424 502 416 494 c 2
 358 436 l 1
 416 377 l 2
 424 369 430 354 430 343 c 0
 430 332 424 316 416 308 c 2
 322 215 l 2
 314 207 299 201 288 201 c 2
 196 201 l 2
 194 201 l 0
 167 201 146 223 146 250 c 0
 146 277 167 299 194 299 c 0
 196 299 l 2
 268 299 l 1
 312 343 l 1
 254 401 l 2
 246 409 240 425 240 436 c 0
 240 447 246 462 254 470 c 2
 312 529 l 1
 254 587 l 2
 246 595 240 611 240 622 c 0
 240 633 246 648 254 656 c 2
 312 715 l 1
 268 759 l 1
 196 759 l 2
 194 759 l 0
 167 759 146 781 146 808 c 0
 146 835 167 857 194 857 c 0
 196 857 l 1
EndSplineSet
EndChar

StartChar: asciitilde
Encoding: 126 126 93
Width: 576
VWidth: 228
Flags: W
HStem: 387 284
LayerCount: 2
Back
Fore
SplineSet
194 671 m 0
 196 671 l 0
 207 671 222 664 230 656 c 2
 382 505 l 1
 440 563 l 2
 448 571 463 578 474 578 c 0
 501 578 524 556 524 529 c 0
 524 518 516 502 508 494 c 2
 416 401 l 2
 408 393 393 387 382 387 c 0
 371 387 354 393 346 401 c 2
 196 552 l 1
 136 494 l 2
 128 486 113 479 102 479 c 0
 75 479 52 501 52 528 c 0
 52 539 60 555 68 563 c 2
 160 656 l 2
 168 664 183 671 194 671 c 0
EndSplineSet
EndChar

StartChar: sterling
Encoding: 163 163 94
Width: 576
VWidth: 228
Flags: W
HStem: 201 98<168 216 359 561.615> 480 98<199.385 285 383 468.615> 666 98<447 561.615>
VStem: 285 98<368 480 578 601>
LayerCount: 2
Back
Fore
SplineSet
427 764 m 1
 520 764 l 2
 521 764 l 0
 548 764 570 742 570 715 c 0
 570 688 548 666 521 666 c 0
 520 666 l 2
 447 666 l 1
 383 601 l 1
 383 578 l 1
 427 578 l 2
 428 578 l 0
 455 578 477 556 477 529 c 0
 477 502 455 480 428 480 c 0
 427 480 l 2
 383 480 l 1
 383 343 l 2
 383 332 377 316 369 308 c 2
 359 299 l 1
 520 299 l 2
 521 299 l 0
 548 299 570 277 570 250 c 0
 570 223 548 201 521 201 c 0
 520 201 l 2
 334 201 l 2
 323 201 307 207 299 215 c 2
 288 227 l 1
 276 215 l 2
 268 207 252 201 241 201 c 2
 148 201 l 2
 137 201 121 207 113 215 c 2
 20 308 l 2
 12 316 6 332 6 343 c 0
 6 354 12 369 20 377 c 2
 113 470 l 2
 121 478 137 485 148 485 c 0
 159 485 175 478 183 470 c 2
 285 368 l 1
 285 480 l 1
 241 480 l 2
 240 480 l 0
 213 480 191 502 191 529 c 0
 191 556 213 578 240 578 c 0
 241 578 l 2
 285 578 l 1
 285 622 l 2
 285 633 291 648 299 656 c 2
 392 749 l 2
 400 757 416 764 427 764 c 1
148 366 m 1
 124 343 l 1
 168 299 l 1
 216 299 l 1
 148 366 l 1
EndSplineSet
EndChar

StartChar: pi
Encoding: 960 960 95
Width: 576
VWidth: 228
Flags: W
HStem: 200 21G<182.5 209.5 368.5 395.5> 480 98<244 332> 651 20G<468.5 487.5>
VStem: 52 192<410.637 475.812> 146 98<209.058 410> 332 98<209.058 480>
LayerCount: 2
Back
Fore
SplineSet
474 671 m 0xf4
 501 671 524 649 524 622 c 0
 524 611 516 595 508 587 c 2
 430 508 l 1
 430 250 l 2
 430 249 l 0
 430 222 409 200 382 200 c 0
 355 200 332 222 332 249 c 0
 332 250 l 2
 332 480 l 1
 244 480 l 1
 244 250 l 2
 244 249 l 0
 244 222 223 200 196 200 c 0
 169 200 146 222 146 249 c 0
 146 250 l 2
 146 410 l 1xec
 136 401 l 2
 128 393 113 386 102 386 c 0
 75 386 52 408 52 435 c 0
 52 446 60 462 68 470 c 2
 160 563 l 2
 166 569 178 575 186 577 c 0
 189 578 193 578 196 578 c 2
 360 578 l 1
 440 656 l 2
 448 664 463 671 474 671 c 0xf4
EndSplineSet
EndChar

StartChar: arrowleft
Encoding: 8592 8592 96
Width: 576
VWidth: 228
Flags: W
HStem: 480 98<174 561.615>
LayerCount: 2
Back
Fore
SplineSet
241 764 m 0
 242 764 l 0
 269 764 291 742 291 715 c 0
 291 704 284 688 276 680 c 2
 174 578 l 1
 521 578 l 2
 548 578 570 556 570 529 c 0
 570 502 548 480 521 480 c 0
 174 480 l 1
 276 377 l 2
 284 369 291 353 291 342 c 0
 291 315 269 293 242 293 c 0
 231 293 215 300 207 308 c 2
 25 490 l 2
 14 498 6 516 6 529 c 0
 6 542 14 560 25 568 c 2
 207 749 l 2
 215 757 230 764 241 764 c 0
EndSplineSet
EndChar

StartChar: arrowup
Encoding: 8593 8593 97
Width: 576
VWidth: 228
Flags: W
HStem: 200 21G<274.5 301.5>
VStem: 240 98<209.058 597>
LayerCount: 2
Back
Fore
SplineSet
288 765 m 0
 301 765 318 756 326 745 c 2
 508 563 l 2
 516 555 524 539 524 528 c 0
 524 501 501 479 474 479 c 0
 463 479 448 486 440 494 c 2
 338 597 l 1
 338 250 l 2
 338 249 l 0
 338 222 315 200 288 200 c 0
 261 200 240 222 240 249 c 0
 240 250 l 2
 240 597 l 1
 136 494 l 2
 128 486 113 479 102 479 c 0
 75 479 52 501 52 528 c 0
 52 539 60 555 68 563 c 2
 248 745 l 2
 256 756 275 765 288 765 c 0
EndSplineSet
EndChar

StartChar: SF100000
Encoding: 9472 9472 98
Width: 576
VWidth: 228
Flags: W
HStem: 480 98<-79.2988 655.299>
LayerCount: 2
Back
Fore
SplineSet
-38 578 m 0
 614 578 l 2
 641 578 664 556 664 529 c 0
 664 502 641 480 614 480 c 0
 -38 480 l 2
 -65 480 -88 502 -88 529 c 0
 -88 556 -65 578 -38 578 c 0
EndSplineSet
EndChar

StartChar: SF110000
Encoding: 9474 9474 99
Width: 576
VWidth: 228
Flags: W
HStem: 107 21G<274.5 301.5> 838 20G<273.5 301.5>
VStem: 239 98<115.385 849.615>
LayerCount: 2
Back
Fore
SplineSet
287 858 m 0
 288 858 l 0
 315 858 337 836 337 809 c 0
 337 808 l 2
 337 157 l 2
 337 156 l 0
 337 129 315 107 288 107 c 0
 261 107 239 129 239 156 c 0
 239 157 l 2
 239 808 l 2
 239 809 l 0
 239 836 260 858 287 858 c 0
EndSplineSet
EndChar

StartChar: uni25B3
Encoding: 9651 9651 100
Width: 576
VWidth: 228
Flags: W
HStem: 201 98<128 448>
LayerCount: 2
Back
Fore
SplineSet
288 578 m 0
 299 578 314 571 322 563 c 2
 602 284 l 2
 610 276 616 261 616 250 c 0
 616 223 595 201 568 201 c 2
 16 201 l 2
 14 201 10 200 8 200 c 0
 -10 200 -29 214 -36 230 c 0
 -36 231 l 0
 -38 236 -40 245 -40 250 c 0
 -40 263 -33 281 -22 289 c 2
 254 563 l 2
 262 571 277 578 288 578 c 0
288 459 m 1
 128 299 l 1
 448 299 l 1
 288 459 l 1
EndSplineSet
EndChar

StartChar: uni25FB
Encoding: 9723 9723 101
Width: 576
VWidth: 228
Flags: W
HStem: 201 98<105 472> 759 98<105 472>
VStem: 7 98<299 759> 472 98<299 759>
LayerCount: 2
Back
Fore
SplineSet
56 857 m 0
 521 857 l 2
 548 857 570 835 570 808 c 2
 570 250 l 2
 570 223 548 201 521 201 c 2
 64 201 l 2
 62 201 58 200 56 200 c 0
 45 200 29 206 21 214 c 0
 20 215 l 0
 12 223 6 239 6 250 c 0
 6 252 7 256 7 258 c 2
 7 808 l 2
 7 835 29 857 56 857 c 0
105 759 m 1
 105 299 l 1
 472 299 l 1
 472 759 l 1
 105 759 l 1
EndSplineSet
EndChar

